<svg xmlns="http://www.w3.org/2000/svg" xmlns:xlink="http://www.w3.org/1999/xlink" viewBox="0 0 421.03 224.92"><defs><style>.cls-1,.cls-2,.cls-3{fill:#fff;}.cls-1{clip-rule:evenodd;}.cls-3{fill-rule:evenodd;}.cls-4{clip-path:url(#clip-path);}.cls-5{clip-path:url(#clip-path-2);}.cls-6{clip-path:url(#clip-path-3);}.cls-7{clip-path:url(#clip-path-5);}.cls-8{clip-path:url(#clip-path-7);}.cls-9{clip-path:url(#clip-path-9);}.cls-10{clip-path:url(#clip-path-11);}.cls-11{clip-path:url(#clip-path-13);}.cls-12{clip-path:url(#clip-path-15);}.cls-13{clip-path:url(#clip-path-17);}.cls-14{clip-path:url(#clip-path-19);}.cls-15{clip-path:url(#clip-path-21);}.cls-16{clip-path:url(#clip-path-23);}.cls-17{clip-path:url(#clip-path-25);}.cls-18{clip-path:url(#clip-path-27);}.cls-19{clip-path:url(#clip-path-29);}.cls-20{clip-path:url(#clip-path-31);}.cls-21{clip-path:url(#clip-path-33);}.cls-22{clip-path:url(#clip-path-35);}.cls-23{clip-path:url(#clip-path-37);}.cls-24{clip-path:url(#clip-path-39);}.cls-25{clip-path:url(#clip-path-41);}.cls-26{clip-path:url(#clip-path-43);}.cls-27{clip-path:url(#clip-path-45);}.cls-28{clip-path:url(#clip-path-47);}</style><clipPath id="clip-path"><path class="cls-1" d="M297.91,116.81c-.21,0-.24-.06-.24-.47v-2.72a.25.25,0,0,1,.26-.25h1.52a.5.5,0,0,0,.5-.5v-.53a.51.51,0,0,0-.5-.51h-7.26a.51.51,0,0,0-.51.51v.53a.51.51,0,0,0,.51.5h1.23c-.15,1.58-.56,2.68-2.2,3.4a2.31,2.31,0,0,1-.32.13.37.37,0,0,0-.19.59l.38.55a.68.68,0,0,0,.76.24l.08,0c2.35-1,2.95-2.61,3.15-4.88h.7a.26.26,0,0,1,.26.25v3.62a1,1,0,0,0,1,1h1.89a1,1,0,0,0,1-1V115.5a.25.25,0,0,0-.25-.26H299a.25.25,0,0,0-.25.25v.81a.51.51,0,0,1-.51.51Z"/></clipPath><clipPath id="clip-path-2"><rect class="cls-2" width="421.03" height="224.92"/></clipPath><clipPath id="clip-path-3"><path class="cls-1" d="M291.13,106a.5.5,0,0,0-.5-.5h-3.09a.5.5,0,0,0-.5.51v11.92a.51.51,0,0,0,.5.51h.51a.5.5,0,0,0,.5-.51V107.27a.26.26,0,0,1,.26-.25h.64a.25.25,0,0,1,.26.25v6.45h-.37a.26.26,0,0,0-.25.26v.75a.26.26,0,0,0,.25.26h1.29a.51.51,0,0,0,.5-.51V106Z"/></clipPath><clipPath id="clip-path-5"><rect class="cls-2" x="293.66" y="109.17" width="4.04" height="1.52" rx="0.5"/></clipPath><clipPath id="clip-path-7"><path class="cls-1" d="M291.64,106.9a.5.5,0,0,1,.5-.51h2.28a.25.25,0,0,0,.25-.25v-.5a.5.5,0,0,1,.5-.51h.51a.79.79,0,0,1,.69.47l.23.56a.4.4,0,0,0,.34.23h2.28a.5.5,0,0,1,.5.51v1.76a.5.5,0,0,1-.5.51h-.51a.5.5,0,0,1-.5-.5v-.5a.26.26,0,0,0-.26-.26h-4.54a.26.26,0,0,0-.26.26v.5a.5.5,0,0,1-.5.5h-.51a.5.5,0,0,1-.5-.51Z"/></clipPath><clipPath id="clip-path-9"><path class="cls-1" d="M281.31,116.52a.26.26,0,0,1-.26-.26v-.81a.25.25,0,0,1,.26-.25h1.79a.51.51,0,0,0,.51-.51v-.51a.51.51,0,0,0-.51-.51h-1.79a.25.25,0,0,1-.26-.24v-.8a.25.25,0,0,1,.25-.25h2.16a.5.5,0,0,0,.51-.5v-.53a.5.5,0,0,0-.5-.5H277a.5.5,0,0,0-.5.5v.53a.5.5,0,0,0,.5.5h2.11a.26.26,0,0,1,.26.25v.8a.25.25,0,0,1-.25.24h-1.77a.51.51,0,0,0-.51.51v.51a.51.51,0,0,0,.51.51h1.77a.25.25,0,0,1,.25.25v.81a.26.26,0,0,1-.25.26H276.4a.51.51,0,0,0-.51.5v.56a.5.5,0,0,0,.51.5h7.37a.5.5,0,0,0,.5-.5V117a.5.5,0,0,0-.5-.5Z"/></clipPath><clipPath id="clip-path-11"><path class="cls-1" d="M276,113.58a.76.76,0,0,0,0-.82l-1.4-1.94c-.08-.11,0-.21.1-.21h.76a.5.5,0,0,0,.5-.51v-.59a.5.5,0,0,0-.5-.51h-.76a.25.25,0,0,1-.25-.25v-1.34a.51.51,0,0,1,.51-.51h.23a.5.5,0,0,0,.5-.51v-.5a.51.51,0,0,0-.5-.51h-3.28a.51.51,0,0,0-.51.51v.5a.51.51,0,0,0,.51.51h.43a.5.5,0,0,1,.51.51v1.34a.25.25,0,0,1-.25.25h-1.08a.51.51,0,0,0-.51.51v.59a.51.51,0,0,0,.51.51h.81c.14,0,.2.1.13.23l-2.09,4c-.13.25,0,.45.27.45h1a.45.45,0,0,0,.36-.22l.7-1.39c.06-.12.11-.11.11,0V118a.51.51,0,0,0,.51.51H274a.51.51,0,0,0,.51-.51v-4.82c0-.15,0-.16.11,0l.51,1a.27.27,0,0,0,.51,0Z"/></clipPath><clipPath id="clip-path-13"><path class="cls-1" d="M278.59,108.25a.25.25,0,0,0,.25.26h2.77a.26.26,0,0,0,.26-.26V107a.25.25,0,0,0-.26-.26h-2.77a.25.25,0,0,0-.25.26Zm-1.61,1.2a.5.5,0,0,0,.5.51H283a.51.51,0,0,0,.51-.51v-3.63a.51.51,0,0,0-.51-.5h-5.56a.5.5,0,0,0-.5.5Z"/></clipPath><clipPath id="clip-path-15"><path class="cls-1" d="M263.26,115.72a.5.5,0,0,1-.51-.5v-6.5a.5.5,0,0,1,.51-.5h3.86a.51.51,0,0,0,.51-.5v-.8a.51.51,0,0,0-.51-.5H256.54a.5.5,0,0,0-.5.5v.8a.5.5,0,0,0,.5.5h3.73a.5.5,0,0,1,.51.5v6.5a.5.5,0,0,1-.51.5h-4.51a.51.51,0,0,0-.51.5V117a.51.51,0,0,0,.5.5h12.19a.51.51,0,0,0,.5-.5v-.74a.5.5,0,0,0-.51-.5Z"/></clipPath><clipPath id="clip-path-17"><path class="cls-1" d="M250.74,111.57c1.15,0,1.89-.2,1.88-1.71v-.51a.51.51,0,0,0-.5-.51h-.46a.5.5,0,0,0-.51.46h0c0,.75,0,.75-.58.75H249c-.55,0-.64-.06-.64-.58v-.61a.42.42,0,0,1,.24-.35l2.55-1.09a.47.47,0,0,0,.23-.66l-.16-.31a.54.54,0,0,0-.69-.24l-1.93.9a.15.15,0,0,1-.24-.15v-1.32a.5.5,0,0,0-.5-.51h-.7a.5.5,0,0,0-.51.5v3.87c0,1.58.42,2.07,2.11,2.07Z"/></clipPath><clipPath id="clip-path-19"><path class="cls-1" d="M251.16,118.65c1.15,0,1.89-.2,1.88-1.71v-.51a.51.51,0,0,0-.5-.51h-.46a.5.5,0,0,0-.51.46h0c0,.74,0,.74-.58.74h-2c-.55,0-.64-.05-.64-.58V116a.41.41,0,0,1,.24-.35l2.85-1.11a.45.45,0,0,0,.24-.64l-.28-.54a.27.27,0,0,0-.34-.14l-2.48,1a.16.16,0,0,1-.23-.16v-1.33a.5.5,0,0,0-.5-.5h-.7a.5.5,0,0,0-.51.5v3.86c0,1.58.42,2.08,2.11,2.08Z"/></clipPath><clipPath id="clip-path-21"><path class="cls-1" d="M244.1,106.23a.53.53,0,0,0-.34.65l.13.47a.19.19,0,0,1-.19.25h-1.6a.34.34,0,0,1-.34-.48l.43-1.26a.34.34,0,0,0-.34-.48h-.76a.7.7,0,0,0-.64.49l-.73,2.53a.36.36,0,0,0,.36.49h4.22a.37.37,0,0,1,.33.24h0a.46.46,0,0,0,.62.3l.63-.25a.52.52,0,0,0,.29-.66l-.85-2.16a.53.53,0,0,0-.66-.31Z"/></clipPath><clipPath id="clip-path-23"><path class="cls-1" d="M241.75,114.18a.25.25,0,0,0,.25.25h1.66a.25.25,0,0,0,.25-.25v-.35a.25.25,0,0,0-.25-.24H242a.25.25,0,0,0-.25.24Zm0-2.12a.25.25,0,0,0,.25.25h1.66a.25.25,0,0,0,.25-.25v-.27a.25.25,0,0,0-.25-.25H242a.25.25,0,0,0-.25.25Zm3.62-1.43a.51.51,0,0,0-.51-.51h-4.19a.51.51,0,0,0-.51.51v7.78a.26.26,0,0,0,.25.26h1.09a.26.26,0,0,0,.25-.26V116a.26.26,0,0,1,.25-.26h1.62a.26.26,0,0,1,.25.26V117a.25.25,0,0,1-.25.25h-.54a.25.25,0,0,0-.25.26v.89a.25.25,0,0,0,.25.25h.47c.56,0,1.34,0,1.34,0a.51.51,0,0,0,.5-.51V117l0-6Z"/></clipPath><clipPath id="clip-path-25"><path class="cls-1" d="M232.46,109.69a.26.26,0,0,0,.25.26h1.7a.26.26,0,0,0,.25-.26v-1.94a.26.26,0,0,0-.25-.26h-1.7a.26.26,0,0,0-.25.26Zm-1.6,1.27a.51.51,0,0,0,.51.51h4.49a.51.51,0,0,0,.51-.51v-4.48a.51.51,0,0,0-.51-.51h-4.49a.51.51,0,0,0-.51.51Z"/></clipPath><clipPath id="clip-path-27"><path class="cls-1" d="M227.36,114.5h6v-.81h-6Zm0,2.1h6v-.85h-6ZM225.67,118a.5.5,0,0,0,.51.5h.93a.25.25,0,0,0,.25-.25V118h6v.21a.26.26,0,0,0,.25.26h1a.51.51,0,0,0,.51-.51v-5.09a.51.51,0,0,0-.51-.51h-8.44a.5.5,0,0,0-.51.5Z"/></clipPath><clipPath id="clip-path-29"><path class="cls-1" d="M224.77,107.91h-.27a.51.51,0,0,1-.51-.51v-1.76a.5.5,0,0,1,.5-.51h.43a.5.5,0,0,1,.5.51v.12a.26.26,0,0,0,.26.25h4a.5.5,0,0,1,.5.5v.33a.5.5,0,0,1-.5.5h-1.13a.27.27,0,0,0-.26.26V108a.24.24,0,0,0,.25.25H230a.51.51,0,0,1,.51.51v.34a.5.5,0,0,1-.51.5h-1.89c.48.25,1.46.81,2.05,1.16h0a.34.34,0,0,1,0,.57l-.3.27-.17.16a.56.56,0,0,1-.69.08h0c-.43-.35-1.05-.8-1.56-1.15a6.22,6.22,0,0,1-2.12,1.81l-.1,0c-.25.13-.52.13-.62,0h0a5.91,5.91,0,0,0-.54-.61h0c-.21-.18-.18-.4.06-.5h0a4.23,4.23,0,0,0,2.15-1.84h-1.91a.5.5,0,0,1-.5-.5v-.34a.51.51,0,0,1,.51-.51h2a.26.26,0,0,0,.26-.25v-.43a.25.25,0,0,0-.25-.26h-.74a.26.26,0,0,0-.26.25v.08a.25.25,0,0,1-.25.25Z"/></clipPath><clipPath id="clip-path-31"><path class="cls-1" d="M216.24,115.94a.5.5,0,0,1-.5-.5V109a.5.5,0,0,1,.5-.5h3.87a.5.5,0,0,0,.5-.51v-.79a.5.5,0,0,0-.5-.5H209.53a.5.5,0,0,0-.51.5v.79a.51.51,0,0,0,.51.51h3.73a.5.5,0,0,1,.51.5v6.49a.5.5,0,0,1-.51.5h-4.51a.51.51,0,0,0-.51.51v.73a.5.5,0,0,0,.5.5h12.18a.5.5,0,0,0,.5-.5v-.73a.51.51,0,0,0-.5-.51Z"/></clipPath><clipPath id="clip-path-33"><path class="cls-1" d="M198.24,104.93a.5.5,0,0,0-.51.5h0a16.54,16.54,0,0,1-1.43,7.29,9.76,9.76,0,0,1-3.88,4.1h0a.41.41,0,0,0-.07.61l.22.33.52.37a.82.82,0,0,0,.84,0l0,0a10.89,10.89,0,0,0,2.55-2.28,12.16,12.16,0,0,0,2-3.47c.12-.3.16-.43.16-.43.09-.26.24-.26.33,0,0,0,.08.22.23.58a10.89,10.89,0,0,0,4.82,5.58h0a.84.84,0,0,0,.84-.1l.31-.25.3-.49a.45.45,0,0,0-.2-.65s.12.06-.05,0c-4.61-2.37-5.44-7.53-5.64-9.42,0-.55.06-1.07.08-1.53a1.92,1.92,0,0,1,0-.22.48.48,0,0,0-.49-.51Z"/></clipPath><clipPath id="clip-path-35"><path class="cls-1" d="M294.73,94.24a.16.16,0,0,1,.17.23,19.17,19.17,0,0,1-1.51,3.27,15.11,15.11,0,0,1-1.23,1.61l-.41.44a1,1,0,0,1-.15.15.51.51,0,0,0,.07.76l.54.39a.54.54,0,0,0,.74-.1l.15-.16.43-.5a18.48,18.48,0,0,0,1.29-1.8,21.16,21.16,0,0,0,1.7-4.06.37.37,0,0,1,.34-.23h.7a.23.23,0,0,1,.24.25s-.27,4.1-.32,4.66c-.08.84-.27,1-1.27,1H294.8a.47.47,0,0,0-.47.57l.12.61a.59.59,0,0,0,.57.47h1.44c1.9,0,2.55-.52,2.68-2.19,0-.36.09-1.37.17-2.84v-.29c0-.72.09-1.49.13-2.25,0-.27,0-.52,0-.75v-.28a.51.51,0,0,0-.51-.54h-4.73c-.28,0-.3-.11-.07-.25l3.33-1.93a1,1,0,0,0,.43-.75V89a.5.5,0,0,0-.5-.5h-6.1a.52.52,0,0,0-.52.52v.59a.52.52,0,0,0,.52.52h3.49L291,92.6a1.07,1.07,0,0,0-.42.78v.33a.52.52,0,0,0,.52.53h1.37a.16.16,0,0,1,.16.23,13.26,13.26,0,0,1-.86,1.63c-.4.58-1.62,2.15-1.89,2.42a.37.37,0,0,0,0,.57,1.11,1.11,0,0,0,.26.2,2.92,2.92,0,0,0,.31.18l.08,0a.57.57,0,0,0,.47-.14,11,11,0,0,0,.93-1.15l0,0,.73-1a14.65,14.65,0,0,0,1.45-2.74.4.4,0,0,1,.35-.23Z"/></clipPath><clipPath id="clip-path-37"><path class="cls-1" d="M289,93.22a.25.25,0,0,1,.25-.25h.64a.5.5,0,0,0,.5-.51v-.61a.51.51,0,0,0-.5-.51h-.64a.25.25,0,0,1-.25-.25V88.25a.52.52,0,0,0-.53-.52h-.64a.52.52,0,0,0-.52.52v2.84a.26.26,0,0,1-.26.25H286a.5.5,0,0,0-.5.51v.61a.5.5,0,0,0,.5.51H287a.26.26,0,0,1,.26.26V97.7A.36.36,0,0,1,287,98l-.78.26-.46.17a.58.58,0,0,0-.35.65l.14.62a.48.48,0,0,0,.65.35l3.16-1.23a1,1,0,0,0,.63-.93v-.08a.56.56,0,0,0-.81-.55h0a.16.16,0,0,1-.23-.16Z"/></clipPath><clipPath id="clip-path-39"><path class="cls-1" d="M263.25,98.76a.5.5,0,0,1-.51-.5v-6.5a.51.51,0,0,1,.51-.5h3.86a.51.51,0,0,0,.51-.5V90a.51.51,0,0,0-.51-.5H256.53a.5.5,0,0,0-.5.5v.8a.5.5,0,0,0,.51.5h3.72a.51.51,0,0,1,.51.5v6.5a.5.5,0,0,1-.51.5h-4.51a.51.51,0,0,0-.51.5V100a.51.51,0,0,0,.51.5h12.18a.51.51,0,0,0,.5-.5v-.74a.51.51,0,0,0-.51-.5Z"/></clipPath><clipPath id="clip-path-41"><path class="cls-1" d="M238.1,93a.51.51,0,0,0-.51-.51H233.7a.25.25,0,0,1-.25-.25V90.38a.34.34,0,0,1,.24-.32l3.33-.88c.4-.11.49-.42.18-.71l-.66-.63a.48.48,0,0,0-.43-.1l-3.86,1.08a.72.72,0,0,0-.49.65v4.81a34.75,34.75,0,0,1-.27,3.77c-.13.84-.07.42-.07.42-.1.25-.29.27-.42,0l-.72-1.25a.5.5,0,0,0-.69-.2l-.3.17a.53.53,0,0,0-.21.69l.72,1.37a.45.45,0,0,0,.66.18l.35-.22c.23-.15.33-.06.21.19l-.24.54a.66.66,0,0,0,.18.77l.58.45a.4.4,0,0,0,.63-.13,10.71,10.71,0,0,0,.78-1.9,15.6,15.6,0,0,0,.41-2.64c.07-.78.08-2.08.08-2.08a.26.26,0,0,1,.26-.26h1a.25.25,0,0,1,.25.25v6.69a.51.51,0,0,0,.51.51h.74a.51.51,0,0,0,.51-.51V94.42a.25.25,0,0,1,.25-.25h.65a.51.51,0,0,0,.51-.51Zm-7.51,3.53a.5.5,0,0,0,.5-.51v-.5a.51.51,0,0,0-.5-.51h-1.75a.25.25,0,0,1-.25-.25v-.66a.26.26,0,0,1,.26-.26h2a.5.5,0,0,0,.51-.5v-.48a.5.5,0,0,0-.51-.5H230c-.14,0-.2-.11-.15-.24l.39-.93a.4.4,0,0,0-.3-.57l-.5-.09c-.14,0-.14-.05,0-.05h1.16a.5.5,0,0,0,.5-.51v-.46a.5.5,0,0,0-.51-.5h-1.89c-.16-.5-.44-1.11-.44-1.11a.63.63,0,0,0-.7-.35l-.62.14a.43.43,0,0,0-.31.59s.13.32.27.73h-2.09a.5.5,0,0,0-.5.5V90a.5.5,0,0,0,.5.51h1.29c.14,0,.14,0,0,.06l-.51.12a.48.48,0,0,0-.35.6l.24.85a.18.18,0,0,1-.18.25h-.73a.5.5,0,0,0-.5.5v.48a.5.5,0,0,0,.5.5h2.12a.26.26,0,0,1,.26.26v.66a.25.25,0,0,1-.26.25h-2a.51.51,0,0,0-.51.51V96a.51.51,0,0,0,.51.51h2a.25.25,0,0,1,.26.25v2.95c0,.16,0,.21-.21.21h-.59a.34.34,0,0,0-.34.48l.16.5a.72.72,0,0,0,.67.47,3.81,3.81,0,0,0,1.36-.24c.45-.26.57-.64.57-1.37v-3a.25.25,0,0,1,.25-.25Zm-2-6.05a.17.17,0,0,1,.17.24l-.48,1.4a.39.39,0,0,1-.34.24h-1.54l.24-.07a.49.49,0,0,0,.34-.62l-.29-1a.18.18,0,0,1,.18-.24Zm-2.85,6.58a.7.7,0,0,0-.74.31l-.8,1.38a.57.57,0,0,0,.16.73l.35.25a.43.43,0,0,0,.65-.14l1-1.86a.37.37,0,0,0-.24-.57Z"/></clipPath><clipPath id="clip-path-43"><path class="cls-2" d="M203.49,88.92h.65a.5.5,0,0,1,.5.5V97.3a.51.51,0,0,1-.51.51h-.65a.5.5,0,0,1-.5-.5V89.42A.5.5,0,0,1,203.49,88.92Z"/></clipPath><clipPath id="clip-path-45"><path class="cls-1" d="M204.21,100.19a.42.42,0,0,0-.43.5l.11.73a.6.6,0,0,0,.58.5h.85c1.72,0,2.3-.52,2.3-2.07V88.2a.51.51,0,0,0-.5-.51h-.65a.51.51,0,0,0-.51.5V99.36c0,.72-.12.83-1,.83Z"/></clipPath><clipPath id="clip-path-47"><path class="cls-1" d="M195.07,99.53c0,1.72.62,2.31,2.32,2.31h2.5c1.82,0,2.4-.42,2.54-1.88,0-.17,0-.34,0-.5s0-.39,0-.39a.74.74,0,0,0-.48-.66l-.67-.21a.33.33,0,0,0-.46.35,2.32,2.32,0,0,1,0,.41c0,.08,0,.22,0,.4,0,.8-.14.88-1.09.88h-2c-.93,0-1-.08-1-1V94.5a.25.25,0,0,1,.26-.25h2.5a.23.23,0,0,1,.24.24l0,1c-.06.75-.11.8-.92.8h-.85a.65.65,0,0,0-.64.8.9.9,0,0,0,.86.73h1c1.57,0,2.1-.52,2.19-2,0-.09,0-.38,0-.83a3.23,3.23,0,0,0,0-.34c0-.26,0-.53,0-.81V93.4a.76.76,0,0,0-.76-.76H196.3c-.14,0-.18-.08-.08-.18s.08-.07.2-.2a19.22,19.22,0,0,0,1.7-2.1l.06-.07,1,.91,1.23,1.1.4.36.15.13a.77.77,0,0,0,1.07,0l.16-.17a.75.75,0,0,0-.07-1.07l-.16-.13-.42-.36-1.27-1.09-1.21-1a.74.74,0,0,0-.31-1l-.4-.22a.52.52,0,0,0-.7.2l-.2.36-.21.33c-.21.33-.43.67-.64,1l-.2.29c-.21.3-.4.55-.56.74s-.36.4-.6.64l-.25.24c-.26.25-.54.51-.83.76l-.37.32-.11.11a.62.62,0,0,0-.1.77l.2.3a.78.78,0,0,0,1.07.14h0c.1-.08.18,0,.18.12Z"/></clipPath></defs><title>Asset 3</title><g id="Layer_2" data-name="Layer 2"><g id="Layer_1-2" data-name="Layer 1"><path class="cls-2" d="M163.05,127.67l9.18-6.6a1.63,1.63,0,0,0-1.9-2.65l-9.18,6.6a1.63,1.63,0,0,0,1.9,2.65Z"/><path class="cls-2" d="M160,122.78l.18-.12.5-.36,1.78-1.28c1.84-1.33,3.67-2.69,5.39-4,.35-.28.7-.54,1-.8a47.28,47.28,0,0,0,6.6-5.77,15.24,15.24,0,1,0-18.88,4,15,15,0,0,0,2.49,1,1.63,1.63,0,0,0,1-3.11,11.8,11.8,0,0,1-2-.81,12,12,0,1,1,14.85-3.13,46.77,46.77,0,0,1-6.06,5.22l-1,.79c-1.69,1.29-3.51,2.64-5.32,4l-1.76,1.26-.49.36-.17.12a1.63,1.63,0,0,0,1.87,2.66Z"/><path class="cls-3" d="M298,130.12h2.4v-.43h-1.88v-1.48h1.54v-.44h-1.54v-1.28h1.82v-.43H298Zm-2.85,0h.51v-3.63h1.23v-.43h-3v.43h1.23Zm-3.79.08c.83,0,1.46-.45,1.46-1.76v-2.38h-.49v2.4c0,1-.43,1.29-1,1.29s-.94-.31-.94-1.29v-2.4h-.52v2.38C289.89,129.75,290.52,130.2,291.35,130.2Zm-4.3-.08h.52v-3.63h1.23v-.43h-3v.43h1.23Zm-2.85,0h.51v-4.06h-.51Zm-2.86,0h.51v-3.63h1.23v-.43h-3v.43h1.23Zm-3.29.08a1.23,1.23,0,0,0,1.38-1.16,1.13,1.13,0,0,0-.84-1.08l-.58-.25c-.31-.14-.67-.29-.67-.68s.3-.6.76-.6a1.29,1.29,0,0,1,.92.38l.28-.32a1.68,1.68,0,0,0-1.2-.51,1.09,1.09,0,0,0-.45,2.13l.58.25c.38.17.68.31.68.72s-.32.67-.85.67a1.57,1.57,0,0,1-1.13-.51l-.3.35A1.93,1.93,0,0,0,278.05,130.2Zm-5.51-.08H273V128c0-.43,0-.86-.06-1.27h0l.44.84,1.48,2.56h.53v-4.06h-.49v2.11c0,.42,0,.88.06,1.29h0l-.43-.84-1.48-2.56h-.53Zm-2,0H271v-4.06h-.51Zm-3.64,0h.51v-4.06h-.51Zm-1.5,0h.54l-1.38-4.06H264l-1.38,4.06h.52l.4-1.24H265Zm-1.75-1.65.2-.62c.15-.46.28-.9.41-1.37h0c.13.47.26.91.41,1.37l.19.62ZM259,130.2a1.23,1.23,0,0,0,1.38-1.16,1.13,1.13,0,0,0-.84-1.08l-.58-.25c-.32-.14-.67-.29-.67-.68s.3-.6.76-.6a1.31,1.31,0,0,1,.92.38l.27-.32A1.64,1.64,0,0,0,259,126a1.09,1.09,0,0,0-.45,2.13l.58.25c.38.17.68.31.68.72s-.32.67-.86.67a1.57,1.57,0,0,1-1.12-.51l-.3.35A1.93,1.93,0,0,0,259,130.2Zm-4.77-.08h2.4v-.43h-1.89v-1.48h1.54v-.44h-1.54v-1.28h1.83v-.43h-2.34Zm-1.09,0-1-1.78a1.09,1.09,0,0,0,.91-1.14c0-.85-.59-1.14-1.41-1.14h-1.28v4.06h.52V128.4h.73l1,1.72Zm-2.3-3.64h.68c.64,0,1,.18,1,.72s-.35.78-1,.78h-.68Zm-3.46,3.72c.83,0,1.47-.45,1.47-1.76v-2.38h-.5v2.4c0,1-.42,1.29-1,1.29s-.94-.31-.94-1.29v-2.4h-.51v2.38C245.88,129.75,246.51,130.2,247.33,130.2Zm-4.29-.08h.51v-3.63h1.23v-.43h-3v.43H243Zm-5.23,0h.48V128c0-.43,0-.86-.06-1.27h0l.44.84,1.48,2.56h.53v-4.06h-.49v2.11c0,.42,0,.88.07,1.29h0l-.43-.84-1.48-2.56h-.53Zm-3.65,0h2.41v-.43h-1.89v-1.48h1.54v-.44h-1.54v-1.28h1.82v-.43h-2.34Zm-2.82,0h.59l1.29-4.06h-.52l-.65,2.2c-.15.48-.25.87-.39,1.34h0c-.15-.47-.25-.86-.39-1.34l-.66-2.2H230Zm-6.76,0h.49V128c0-.43,0-.86-.06-1.27h0l.44.84,1.47,2.56h.53v-4.06H227v2.11c0,.42,0,.88.07,1.29h0l-.43-.84-1.48-2.56h-.53Zm-3-.37c-.73,0-1.2-.66-1.2-1.67s.47-1.65,1.2-1.65,1.21.63,1.21,1.65S222.31,129.75,221.58,129.75Zm0,.45c1,0,1.74-.82,1.74-2.12s-.72-2.1-1.74-2.1-1.73.79-1.73,2.1S220.57,130.2,221.58,130.2Zm-3.51-.08h.52v-4.06h-.52Zm-2.85,0h.51v-3.63H217v-.43h-3v.43h1.23Zm-2,0h.54l-1.38-4.06h-.57l-1.38,4.06h.52l.4-1.24h1.48Zm-1.75-1.65.2-.62c.15-.46.28-.9.41-1.37h0c.13.47.26.91.41,1.37l.19.62Zm-3.24,1.65h.59l1.29-4.06h-.52l-.65,2.2c-.15.48-.25.87-.39,1.34h0c-.15-.47-.25-.86-.39-1.34l-.66-2.2h-.54Zm-3.68-.37c-.73,0-1.21-.66-1.21-1.67s.48-1.65,1.21-1.65,1.2.63,1.2,1.65S205.26,129.75,204.54,129.75Zm0,.45c1,0,1.73-.82,1.73-2.12s-.71-2.1-1.73-2.1-1.74.79-1.74,2.1S203.52,130.2,204.54,130.2Zm-5.89-.08h.49V128c0-.43,0-.86-.06-1.27h0l.44.84,1.48,2.56h.52v-4.06h-.48v2.11c0,.42,0,.88.06,1.29h0l-.43-.84-1.48-2.56h-.53Zm-2,0h.52v-4.06h-.52Zm-2.56.08a1.23,1.23,0,0,0,1.38-1.16,1.13,1.13,0,0,0-.84-1.08l-.58-.25c-.31-.14-.67-.29-.67-.68s.3-.6.76-.6a1.31,1.31,0,0,1,.92.38l.28-.32a1.68,1.68,0,0,0-1.2-.51,1.09,1.09,0,0,0-.45,2.13l.58.25c.38.17.68.31.68.72s-.32.67-.85.67a1.57,1.57,0,0,1-1.13-.51l-.3.35A1.93,1.93,0,0,0,194.08,130.2Z"/><path class="cls-3" d="M297.91,116.81c-.21,0-.24-.06-.24-.47v-2.72a.25.25,0,0,1,.26-.25h1.52a.5.5,0,0,0,.5-.5v-.53a.51.51,0,0,0-.5-.51h-7.26a.51.51,0,0,0-.51.51v.53a.51.51,0,0,0,.51.5h1.23c-.15,1.58-.56,2.68-2.2,3.4a2.31,2.31,0,0,1-.32.13.37.37,0,0,0-.19.59l.38.55a.68.68,0,0,0,.76.24l.08,0c2.35-1,2.95-2.61,3.15-4.88h.7a.26.26,0,0,1,.26.25v3.62a1,1,0,0,0,1,1h1.89a1,1,0,0,0,1-1V115.5a.25.25,0,0,0-.25-.26H299a.25.25,0,0,0-.25.25v.81a.51.51,0,0,1-.51.51Z"/><g class="cls-4"><rect class="cls-2" width="421.03" height="224.92"/><g class="cls-5"><rect class="cls-2" x="288.1" y="109.3" width="14.38" height="11.54"/></g></g><path class="cls-3" d="M291.13,106a.5.5,0,0,0-.5-.5h-3.09a.5.5,0,0,0-.5.51v11.92a.51.51,0,0,0,.5.51h.51a.5.5,0,0,0,.5-.51V107.27a.26.26,0,0,1,.26-.25h.64a.25.25,0,0,1,.26.25v6.45h-.37a.26.26,0,0,0-.25.26v.75a.26.26,0,0,0,.25.26h1.29a.51.51,0,0,0,.5-.51V106Z"/><g class="cls-6"><rect class="cls-2" width="421.03" height="224.92"/><g class="cls-5"><rect class="cls-2" x="284.52" y="102.95" width="9.14" height="17.99"/></g></g><rect class="cls-2" x="293.66" y="109.17" width="4.04" height="1.52" rx="0.5"/><g class="cls-7"><rect class="cls-2" width="421.03" height="224.92"/><g class="cls-5"><rect class="cls-2" x="291.13" y="106.65" width="9.1" height="6.57"/></g></g><path class="cls-3" d="M291.64,106.9a.5.5,0,0,1,.5-.51h2.28a.25.25,0,0,0,.25-.25v-.5a.5.5,0,0,1,.5-.51h.51a.79.79,0,0,1,.69.47l.23.56a.4.4,0,0,0,.34.23h2.28a.5.5,0,0,1,.5.51v1.76a.5.5,0,0,1-.5.51h-.51a.5.5,0,0,1-.5-.5v-.5a.26.26,0,0,0-.26-.26h-4.54a.26.26,0,0,0-.26.26v.5a.5.5,0,0,1-.5.5h-.51a.5.5,0,0,1-.5-.51Z"/><g class="cls-8"><rect class="cls-2" width="421.03" height="224.92"/><g class="cls-5"><rect class="cls-2" x="289.11" y="102.6" width="13.14" height="9.1"/></g></g><path class="cls-3" d="M281.31,116.52a.26.26,0,0,1-.26-.26v-.81a.25.25,0,0,1,.26-.25h1.79a.51.51,0,0,0,.51-.51v-.51a.51.51,0,0,0-.51-.51h-1.79a.25.25,0,0,1-.26-.24v-.8a.25.25,0,0,1,.25-.25h2.16a.5.5,0,0,0,.51-.5v-.53a.5.5,0,0,0-.5-.5H277a.5.5,0,0,0-.5.5v.53a.5.5,0,0,0,.5.5h2.11a.26.26,0,0,1,.26.25v.8a.25.25,0,0,1-.25.24h-1.77a.51.51,0,0,0-.51.51v.51a.51.51,0,0,0,.51.51h1.77a.25.25,0,0,1,.25.25v.81a.26.26,0,0,1-.25.26H276.4a.51.51,0,0,0-.51.5v.56a.5.5,0,0,0,.51.5h7.37a.5.5,0,0,0,.5-.5V117a.5.5,0,0,0-.5-.5Z"/><g class="cls-9"><rect class="cls-2" width="421.03" height="224.92"/><g class="cls-5"><rect class="cls-2" x="273.36" y="108.32" width="13.44" height="12.29"/></g></g><path class="cls-3" d="M276,113.58a.76.76,0,0,0,0-.82l-1.4-1.94c-.08-.11,0-.21.1-.21h.76a.5.5,0,0,0,.5-.51v-.59a.5.5,0,0,0-.5-.51h-.76a.25.25,0,0,1-.25-.25v-1.34a.51.51,0,0,1,.51-.51h.23a.5.5,0,0,0,.5-.51v-.5a.51.51,0,0,0-.5-.51h-3.28a.51.51,0,0,0-.51.51v.5a.51.51,0,0,0,.51.51h.43a.5.5,0,0,1,.51.51v1.34a.25.25,0,0,1-.25.25h-1.08a.51.51,0,0,0-.51.51v.59a.51.51,0,0,0,.51.51h.81c.14,0,.2.1.13.23l-2.09,4c-.13.25,0,.45.27.45h1a.45.45,0,0,0,.36-.22l.7-1.39c.06-.12.11-.11.11,0V118a.51.51,0,0,0,.51.51H274a.51.51,0,0,0,.51-.51v-4.82c0-.15,0-.16.11,0l.51,1a.27.27,0,0,0,.51,0Z"/><g class="cls-10"><rect class="cls-2" width="421.03" height="224.92"/><g class="cls-5"><rect class="cls-2" x="267.81" y="102.86" width="10.86" height="18.15"/></g></g><path class="cls-3" d="M278.59,108.25a.25.25,0,0,0,.25.26h2.77a.26.26,0,0,0,.26-.26V107a.25.25,0,0,0-.26-.26h-2.77a.25.25,0,0,0-.25.26Zm-1.61,1.2a.5.5,0,0,0,.5.51H283a.51.51,0,0,0,.51-.51v-3.63a.51.51,0,0,0-.51-.5h-5.56a.5.5,0,0,0-.5.5Z"/><g class="cls-11"><rect class="cls-2" width="421.03" height="224.92"/><g class="cls-5"><rect class="cls-2" x="274.45" y="102.79" width="11.63" height="9.7"/></g></g><path class="cls-3" d="M263.26,115.72a.5.5,0,0,1-.51-.5v-6.5a.5.5,0,0,1,.51-.5h3.86a.51.51,0,0,0,.51-.5v-.8a.51.51,0,0,0-.51-.5H256.54a.5.5,0,0,0-.5.5v.8a.5.5,0,0,0,.5.5h3.73a.5.5,0,0,1,.51.5v6.5a.5.5,0,0,1-.51.5h-4.51a.51.51,0,0,0-.51.5V117a.51.51,0,0,0,.5.5h12.19a.51.51,0,0,0,.5-.5v-.74a.5.5,0,0,0-.51-.5Z"/><g class="cls-12"><rect class="cls-2" width="421.03" height="224.92"/><g class="cls-5"><rect class="cls-2" x="252.73" y="103.89" width="18.24" height="16.09"/></g></g><path class="cls-3" d="M250.74,111.57c1.15,0,1.89-.2,1.88-1.71v-.51a.51.51,0,0,0-.5-.51h-.46a.5.5,0,0,0-.51.46h0c0,.75,0,.75-.58.75H249c-.55,0-.64-.06-.64-.58v-.61a.42.42,0,0,1,.24-.35l2.55-1.09a.47.47,0,0,0,.23-.66l-.16-.31a.54.54,0,0,0-.69-.24l-1.93.9a.15.15,0,0,1-.24-.15v-1.32a.5.5,0,0,0-.5-.51h-.7a.5.5,0,0,0-.51.5v3.87c0,1.58.42,2.07,2.11,2.07Z"/><g class="cls-13"><rect class="cls-2" width="421.03" height="224.92"/><g class="cls-5"><rect class="cls-2" x="244.13" y="102.6" width="11.03" height="11.49"/></g></g><path class="cls-3" d="M251.16,118.65c1.15,0,1.89-.2,1.88-1.71v-.51a.51.51,0,0,0-.5-.51h-.46a.5.5,0,0,0-.51.46h0c0,.74,0,.74-.58.74h-2c-.55,0-.64-.05-.64-.58V116a.41.41,0,0,1,.24-.35l2.85-1.11a.45.45,0,0,0,.24-.64l-.28-.54a.27.27,0,0,0-.34-.14l-2.48,1a.16.16,0,0,1-.23-.16v-1.33a.5.5,0,0,0-.5-.5h-.7a.5.5,0,0,0-.51.5v3.86c0,1.58.42,2.08,2.11,2.08Z"/><g class="cls-14"><rect class="cls-2" width="421.03" height="224.92"/><g class="cls-5"><rect class="cls-2" x="244.13" y="109.68" width="11.45" height="11.49"/></g></g><path class="cls-3" d="M244.1,106.23a.53.53,0,0,0-.34.65l.13.47a.19.19,0,0,1-.19.25h-1.6a.34.34,0,0,1-.34-.48l.43-1.26a.34.34,0,0,0-.34-.48h-.76a.7.7,0,0,0-.64.49l-.73,2.53a.36.36,0,0,0,.36.49h4.22a.37.37,0,0,1,.33.24h0a.46.46,0,0,0,.62.3l.63-.25a.52.52,0,0,0,.29-.66l-.85-2.16a.53.53,0,0,0-.66-.31Z"/><g class="cls-15"><rect class="cls-2" width="421.03" height="224.92"/><g class="cls-5"><rect class="cls-2" x="237.17" y="102.86" width="11.56" height="9.13"/></g></g><path class="cls-3" d="M241.75,114.18a.25.25,0,0,0,.25.25h1.66a.25.25,0,0,0,.25-.25v-.35a.25.25,0,0,0-.25-.24H242a.25.25,0,0,0-.25.24Zm0-2.12a.25.25,0,0,0,.25.25h1.66a.25.25,0,0,0,.25-.25v-.27a.25.25,0,0,0-.25-.25H242a.25.25,0,0,0-.25.25Zm3.62-1.43a.51.51,0,0,0-.51-.51h-4.19a.51.51,0,0,0-.51.51v7.78a.26.26,0,0,0,.25.26h1.09a.26.26,0,0,0,.25-.26V116a.26.26,0,0,1,.25-.26h1.62a.26.26,0,0,1,.25.26V117a.25.25,0,0,1-.25.25h-.54a.25.25,0,0,0-.25.26v.89a.25.25,0,0,0,.25.25h.47c.56,0,1.34,0,1.34,0a.51.51,0,0,0,.5-.51V117l0-6Z"/><g class="cls-16"><rect class="cls-2" width="421.03" height="224.92"/><g class="cls-5"><rect class="cls-2" x="237.63" y="107.59" width="10.29" height="13.61"/></g></g><path class="cls-3" d="M232.46,109.69a.26.26,0,0,0,.25.26h1.7a.26.26,0,0,0,.25-.26v-1.94a.26.26,0,0,0-.25-.26h-1.7a.26.26,0,0,0-.25.26Zm-1.6,1.27a.51.51,0,0,0,.51.51h4.49a.51.51,0,0,0,.51-.51v-4.48a.51.51,0,0,0-.51-.51h-4.49a.51.51,0,0,0-.51.51Z"/><g class="cls-17"><rect class="cls-2" width="421.03" height="224.92"/><g class="cls-5"><rect class="cls-2" x="228.33" y="103.44" width="10.57" height="10.55"/></g></g><path class="cls-3" d="M227.36,114.5h6v-.81h-6Zm0,2.1h6v-.85h-6ZM225.67,118a.5.5,0,0,0,.51.5h.93a.25.25,0,0,0,.25-.25V118h6v.21a.26.26,0,0,0,.25.26h1a.51.51,0,0,0,.51-.51v-5.09a.51.51,0,0,0-.51-.51h-8.44a.5.5,0,0,0-.51.5Z"/><g class="cls-18"><rect class="cls-2" width="421.03" height="224.92"/><g class="cls-5"><rect class="cls-2" x="223.14" y="109.81" width="14.51" height="11.18"/></g></g><path class="cls-3" d="M224.77,107.91h-.27a.51.51,0,0,1-.51-.51v-1.76a.5.5,0,0,1,.5-.51h.43a.5.5,0,0,1,.5.51v.12a.26.26,0,0,0,.26.25h4a.5.5,0,0,1,.5.5v.33a.5.5,0,0,1-.5.5h-1.13a.27.27,0,0,0-.26.26V108a.24.24,0,0,0,.25.25H230a.51.51,0,0,1,.51.51v.34a.5.5,0,0,1-.51.5h-1.89c.48.25,1.46.81,2.05,1.16h0a.34.34,0,0,1,0,.57l-.3.27-.17.16a.56.56,0,0,1-.69.08h0c-.43-.35-1.05-.8-1.56-1.15a6.22,6.22,0,0,1-2.12,1.81l-.1,0c-.25.13-.52.13-.62,0h0a5.91,5.91,0,0,0-.54-.61h0c-.21-.18-.18-.4.06-.5h0a4.23,4.23,0,0,0,2.15-1.84h-1.91a.5.5,0,0,1-.5-.5v-.34a.51.51,0,0,1,.51-.51h2a.26.26,0,0,0,.26-.25v-.43a.25.25,0,0,0-.25-.26h-.74a.26.26,0,0,0-.26.25v.08a.25.25,0,0,1-.25.25Z"/><g class="cls-19"><rect class="cls-2" width="421.03" height="224.92"/><g class="cls-5"><rect class="cls-2" x="221.38" y="102.6" width="11.68" height="12.6"/></g></g><path class="cls-3" d="M216.24,115.94a.5.5,0,0,1-.5-.5V109a.5.5,0,0,1,.5-.5h3.87a.5.5,0,0,0,.5-.51v-.79a.5.5,0,0,0-.5-.5H209.53a.5.5,0,0,0-.51.5v.79a.51.51,0,0,0,.51.51h3.73a.5.5,0,0,1,.51.5v6.49a.5.5,0,0,1-.51.5h-4.51a.51.51,0,0,0-.51.51v.73a.5.5,0,0,0,.5.5h12.18a.5.5,0,0,0,.5-.5v-.73a.51.51,0,0,0-.5-.51Z"/><g class="cls-20"><rect class="cls-2" width="421.03" height="224.92"/><g class="cls-5"><rect class="cls-2" x="205.71" y="104.12" width="18.24" height="16.09"/></g></g><path class="cls-3" d="M198.24,104.93a.5.5,0,0,0-.51.5h0a16.54,16.54,0,0,1-1.43,7.29,9.76,9.76,0,0,1-3.88,4.1h0a.41.41,0,0,0-.07.61l.22.33.52.37a.82.82,0,0,0,.84,0l0,0a10.89,10.89,0,0,0,2.55-2.28,12.16,12.16,0,0,0,2-3.47c.12-.3.16-.43.16-.43.09-.26.24-.26.33,0,0,0,.08.22.23.58a10.89,10.89,0,0,0,4.82,5.58h0a.84.84,0,0,0,.84-.1l.31-.25.3-.49a.45.45,0,0,0-.2-.65s.12.06-.05,0c-4.61-2.37-5.44-7.53-5.64-9.42,0-.55.06-1.07.08-1.53a1.92,1.92,0,0,1,0-.22.48.48,0,0,0-.49-.51Z"/><g class="cls-21"><rect class="cls-2" width="421.03" height="224.92"/><g class="cls-5"><rect class="cls-2" x="189.72" y="102.4" width="18.38" height="18.4"/></g></g><path class="cls-3" d="M294.73,94.24a.16.16,0,0,1,.17.23,19.17,19.17,0,0,1-1.51,3.27,15.11,15.11,0,0,1-1.23,1.61l-.41.44a1,1,0,0,1-.15.15.51.51,0,0,0,.07.76l.54.39a.54.54,0,0,0,.74-.1l.15-.16.43-.5a18.48,18.48,0,0,0,1.29-1.8,21.16,21.16,0,0,0,1.7-4.06.37.37,0,0,1,.34-.23h.7a.23.23,0,0,1,.24.25s-.27,4.1-.32,4.66c-.08.84-.27,1-1.27,1H294.8a.47.47,0,0,0-.47.57l.12.61a.59.59,0,0,0,.57.47h1.44c1.9,0,2.55-.52,2.68-2.19,0-.36.09-1.37.17-2.84v-.29c0-.72.09-1.49.13-2.25,0-.27,0-.52,0-.75v-.28a.51.51,0,0,0-.51-.54h-4.73c-.28,0-.3-.11-.07-.25l3.33-1.93a1,1,0,0,0,.43-.75V89a.5.5,0,0,0-.5-.5h-6.1a.52.52,0,0,0-.52.52v.59a.52.52,0,0,0,.52.52h3.49L291,92.6a1.07,1.07,0,0,0-.42.78v.33a.52.52,0,0,0,.52.53h1.37a.16.16,0,0,1,.16.23,13.26,13.26,0,0,1-.86,1.63c-.4.58-1.62,2.15-1.89,2.42a.37.37,0,0,0,0,.57,1.11,1.11,0,0,0,.26.2,2.92,2.92,0,0,0,.31.18l.08,0a.57.57,0,0,0,.47-.14,11,11,0,0,0,.93-1.15l0,0,.73-1a14.65,14.65,0,0,0,1.45-2.74.4.4,0,0,1,.35-.23Z"/><g class="cls-22"><rect class="cls-2" width="421.03" height="224.92"/><g class="cls-5"><rect class="cls-2" x="287.24" y="85.96" width="14.79" height="18.36"/></g></g><path class="cls-3" d="M289,93.22a.25.25,0,0,1,.25-.25h.64a.5.5,0,0,0,.5-.51v-.61a.51.51,0,0,0-.5-.51h-.64a.25.25,0,0,1-.25-.25V88.25a.52.52,0,0,0-.53-.52h-.64a.52.52,0,0,0-.52.52v2.84a.26.26,0,0,1-.26.25H286a.5.5,0,0,0-.5.51v.61a.5.5,0,0,0,.5.51H287a.26.26,0,0,1,.26.26V97.7A.36.36,0,0,1,287,98l-.78.26-.46.17a.58.58,0,0,0-.35.65l.14.62a.48.48,0,0,0,.65.35l3.16-1.23a1,1,0,0,0,.63-.93v-.08a.56.56,0,0,0-.81-.55h0a.16.16,0,0,1-.23-.16Z"/><g class="cls-23"><rect class="cls-2" width="421.03" height="224.92"/><g class="cls-5"><rect class="cls-2" x="282.91" y="85.2" width="9.99" height="17.44"/></g></g><path class="cls-3" d="M263.25,98.76a.5.5,0,0,1-.51-.5v-6.5a.51.51,0,0,1,.51-.5h3.86a.51.51,0,0,0,.51-.5V90a.51.51,0,0,0-.51-.5H256.53a.5.5,0,0,0-.5.5v.8a.5.5,0,0,0,.51.5h3.72a.51.51,0,0,1,.51.5v6.5a.5.5,0,0,1-.51.5h-4.51a.51.51,0,0,0-.51.5V100a.51.51,0,0,0,.51.5h12.18a.51.51,0,0,0,.5-.5v-.74a.51.51,0,0,0-.51-.5Z"/><g class="cls-24"><rect class="cls-2" width="421.03" height="224.92"/><g class="cls-5"><rect class="cls-2" x="252.72" y="86.93" width="18.24" height="16.09"/></g></g><path class="cls-3" d="M238.1,93a.51.51,0,0,0-.51-.51H233.7a.25.25,0,0,1-.25-.25V90.38a.34.34,0,0,1,.24-.32l3.33-.88c.4-.11.49-.42.18-.71l-.66-.63a.48.48,0,0,0-.43-.1l-3.86,1.08a.72.72,0,0,0-.49.65v4.81a34.75,34.75,0,0,1-.27,3.77c-.13.84-.07.42-.07.42-.1.25-.29.27-.42,0l-.72-1.25a.5.5,0,0,0-.69-.2l-.3.17a.53.53,0,0,0-.21.69l.72,1.37a.45.45,0,0,0,.66.18l.35-.22c.23-.15.33-.06.21.19l-.24.54a.66.66,0,0,0,.18.77l.58.45a.4.4,0,0,0,.63-.13,10.71,10.71,0,0,0,.78-1.9,15.6,15.6,0,0,0,.41-2.64c.07-.78.08-2.08.08-2.08a.26.26,0,0,1,.26-.26h1a.25.25,0,0,1,.25.25v6.69a.51.51,0,0,0,.51.51h.74a.51.51,0,0,0,.51-.51V94.42a.25.25,0,0,1,.25-.25h.65a.51.51,0,0,0,.51-.51Zm-7.51,3.53a.5.5,0,0,0,.5-.51v-.5a.51.51,0,0,0-.5-.51h-1.75a.25.25,0,0,1-.25-.25v-.66a.26.26,0,0,1,.26-.26h2a.5.5,0,0,0,.51-.5v-.48a.5.5,0,0,0-.51-.5H230c-.14,0-.2-.11-.15-.24l.39-.93a.4.4,0,0,0-.3-.57l-.5-.09c-.14,0-.14-.05,0-.05h1.16a.5.5,0,0,0,.5-.51v-.46a.5.5,0,0,0-.51-.5h-1.89c-.16-.5-.44-1.11-.44-1.11a.63.63,0,0,0-.7-.35l-.62.14a.43.43,0,0,0-.31.59s.13.32.27.73h-2.09a.5.5,0,0,0-.5.5V90a.5.5,0,0,0,.5.51h1.29c.14,0,.14,0,0,.06l-.51.12a.48.48,0,0,0-.35.6l.24.85a.18.18,0,0,1-.18.25h-.73a.5.5,0,0,0-.5.5v.48a.5.5,0,0,0,.5.5h2.12a.26.26,0,0,1,.26.26v.66a.25.25,0,0,1-.26.25h-2a.51.51,0,0,0-.51.51V96a.51.51,0,0,0,.51.51h2a.25.25,0,0,1,.26.25v2.95c0,.16,0,.21-.21.21h-.59a.34.34,0,0,0-.34.48l.16.5a.72.72,0,0,0,.67.47,3.81,3.81,0,0,0,1.36-.24c.45-.26.57-.64.57-1.37v-3a.25.25,0,0,1,.25-.25Zm-2-6.05a.17.17,0,0,1,.17.24l-.48,1.4a.39.39,0,0,1-.34.24h-1.54l.24-.07a.49.49,0,0,0,.34-.62l-.29-1a.18.18,0,0,1,.18-.24Zm-2.85,6.58a.7.7,0,0,0-.74.31l-.8,1.38a.57.57,0,0,0,.16.73l.35.25a.43.43,0,0,0,.65-.14l1-1.86a.37.37,0,0,0-.24-.57Z"/><g class="cls-25"><rect class="cls-2" width="421.03" height="224.92"/><g class="cls-5"><rect class="cls-2" x="221.56" y="85.01" width="19.07" height="19.13"/></g></g><path class="cls-2" d="M203.49,88.92h.65a.5.5,0,0,1,.5.5V97.3a.51.51,0,0,1-.51.51h-.65a.5.5,0,0,1-.5-.5V89.42A.5.5,0,0,1,203.49,88.92Z"/><g class="cls-26"><rect class="cls-2" width="421.03" height="224.92"/><g class="cls-5"><rect class="cls-2" x="200.46" y="86.39" width="6.71" height="13.95"/></g></g><path class="cls-3" d="M204.21,100.19a.42.42,0,0,0-.43.5l.11.73a.6.6,0,0,0,.58.5h.85c1.72,0,2.3-.52,2.3-2.07V88.2a.51.51,0,0,0-.5-.51h-.65a.51.51,0,0,0-.51.5V99.36c0,.72-.12.83-1,.83Z"/><g class="cls-27"><rect class="cls-2" width="421.03" height="224.92"/><g class="cls-5"><rect class="cls-2" x="201.25" y="85.16" width="8.9" height="19.29"/></g></g><path class="cls-3" d="M195.07,99.53c0,1.72.62,2.31,2.32,2.31h2.5c1.82,0,2.4-.42,2.54-1.88,0-.17,0-.34,0-.5s0-.39,0-.39a.74.74,0,0,0-.48-.66l-.67-.21a.33.33,0,0,0-.46.35,2.32,2.32,0,0,1,0,.41c0,.08,0,.22,0,.4,0,.8-.14.88-1.09.88h-2c-.93,0-1-.08-1-1V94.5a.25.25,0,0,1,.26-.25h2.5a.23.23,0,0,1,.24.24l0,1c-.06.75-.11.8-.92.8h-.85a.65.65,0,0,0-.64.8.9.9,0,0,0,.86.73h1c1.57,0,2.1-.52,2.19-2,0-.09,0-.38,0-.83a3.23,3.23,0,0,0,0-.34c0-.26,0-.53,0-.81V93.4a.76.76,0,0,0-.76-.76H196.3c-.14,0-.18-.08-.08-.18s.08-.07.2-.2a19.22,19.22,0,0,0,1.7-2.1l.06-.07,1,.91,1.23,1.1.4.36.15.13a.77.77,0,0,0,1.07,0l.16-.17a.75.75,0,0,0-.07-1.07l-.16-.13-.42-.36-1.27-1.09-1.21-1a.74.74,0,0,0-.31-1l-.4-.22a.52.52,0,0,0-.7.2l-.2.36-.21.33c-.21.33-.43.67-.64,1l-.2.29c-.21.3-.4.55-.56.74s-.36.4-.6.64l-.25.24c-.26.25-.54.51-.83.76l-.37.32-.11.11a.62.62,0,0,0-.1.77l.2.3a.78.78,0,0,0,1.07.14h0c.1-.08.18,0,.18.12Z"/><g class="cls-28"><rect class="cls-2" width="421.03" height="224.92"/><g class="cls-5"><rect class="cls-2" x="190.99" y="84.84" width="14.02" height="19.53"/></g></g></g></g></svg>