<?xml version="1.0" encoding="UTF-8" standalone="no"?>
<!DOCTYPE svg PUBLIC "-//W3C//DTD SVG 1.1//EN" "http://www.w3.org/Graphics/SVG/1.1/DTD/svg11.dtd">
<svg width="100%" height="100%" viewBox="0 0 750 180" version="1.1" xmlns="http://www.w3.org/2000/svg" xmlns:xlink="http://www.w3.org/1999/xlink" xml:space="preserve" xmlns:serif="http://www.serif.com/" style="fill-rule:evenodd;clip-rule:evenodd;stroke-linejoin:round;stroke-miterlimit:2;">
    <g transform="matrix(2.92822,0,0,2.92822,12.3034,11.2557)">
        <path d="M48.84,44.492C45.575,46.978 41.308,51.24 39.588,52.59C39.209,52.888 38.171,52.451 38,52C37.203,49.903 35.559,41.969 34.808,40.008C34.717,39.998 34.575,39.986 34.456,39.99C34.114,40.001 33.699,40.059 33.233,40.146C30.182,40.714 25.202,42.44 23.464,42.369C22.551,42.331 21.598,41.753 20.737,40.848C19.13,39.158 18.086,36.543 17.306,35.946C16.871,35.612 12.968,35.823 11.263,35.233C10.646,35.019 9.934,34.446 9.233,33.604C8.327,32.515 7.392,30.962 6.605,29.372C5.685,27.516 4.968,25.609 4.708,24.343C4.576,23.701 4.675,23.28 4.39,22.871C3.831,22.068 1.964,20.27 1.355,19.528C1.168,19.3 1.051,18.97 1.195,18.528C1.336,18.094 2.051,17.217 3.239,16.129C7.389,12.327 17.334,4.751 22.211,2.284C23.288,1.739 24.018,1.236 25.292,1.116C28.213,0.842 43.136,3.327 47.587,4.182C47.742,4.211 47.968,4.3 48.233,4.487C48.574,4.729 49.074,5.188 49.675,5.809C52.862,9.095 59.243,17.123 60.28,18.498C60.351,18.592 60.435,18.75 60.526,18.964C60.534,18.978 60.541,18.991 60.549,19.005C60.585,19.074 60.611,19.146 60.627,19.219C60.75,19.548 60.881,19.968 61.007,20.464C61.527,22.509 62.103,25.99 62.211,29.193C62.275,31.075 62.175,32.862 61.826,34.229C61.556,35.286 61.125,36.111 60.556,36.621C57.633,39.241 52.335,41.83 48.84,44.492ZM40.113,34.077C39.538,34.55 38.802,34.833 38,34.833C37.305,34.833 36.659,34.62 36.125,34.256C36.125,34.256 32.715,35.875 32,36.623C31.484,37.163 31.471,38.458 31.833,38.744C32.196,39.029 33.546,38.38 34.175,38.336C34.722,38.298 35.163,38.344 35.467,38.452C35.864,38.593 36.115,38.839 36.251,39.137C36.699,40.123 38.243,45.853 39.142,49.255C39.142,49.255 44.271,39.53 44.433,37C44.557,35.073 40.113,34.077 40.113,34.077ZM46.451,43.47C47.028,42.534 45.885,39.15 45.885,39.15L41.351,48.515C43.268,46.646 45.488,45.033 46.451,43.47ZM47.556,37C47.121,38.381 47.286,41.716 49.003,41.622C50.74,41.527 56.019,37.903 57.208,36.572C57.999,35.685 55.602,34.086 55.602,34.086C55.028,34.553 54.297,34.833 53.5,34.833C52.548,34.833 51.688,34.433 51.08,33.791C51.08,33.791 47.991,35.619 47.556,37ZM26.036,33.662C25.425,34.379 24.515,34.833 23.5,34.833C22.651,34.833 21.876,34.515 21.287,33.992C21.287,33.992 19.085,34.431 19.091,35.261C19.098,36.092 20.261,37.599 21.328,38.976C21.716,39.476 23.2,40.69 23.532,40.704C24.262,40.733 28.785,39.837 29.291,39.246C29.797,38.656 30.711,37.168 30.167,36.443C29.478,35.527 26.036,33.662 26.036,33.662ZM43.302,21.957C43.302,21.957 40.164,22.946 39.423,24C38.683,25.054 38.859,28.279 38.859,28.279C40.283,28.658 41.333,29.957 41.333,31.5C41.333,31.935 41.25,32.35 41.098,32.731C41.098,32.731 44.472,35.069 46,35C47.528,34.931 50.268,32.318 50.268,32.318C50.202,32.056 50.167,31.782 50.167,31.5C50.167,29.986 51.179,28.706 52.563,28.301C52.563,28.301 53.275,24.996 52.627,23.944C51.979,22.892 48.674,21.989 48.674,21.989C48.066,22.805 47.094,23.333 46,23.333C44.891,23.333 43.908,22.791 43.302,21.957ZM33.137,21.538C32.527,22.326 31.573,22.833 30.5,22.833C29.592,22.833 28.769,22.47 28.168,21.881C28.168,21.881 25.618,23.438 25,24.509C24.382,25.58 24.46,28.307 24.46,28.307C25.832,28.72 26.833,29.994 26.833,31.5C26.833,31.721 26.812,31.938 26.77,32.147C26.77,32.147 29.681,34.896 31.053,35.031C32.426,35.167 35.004,32.961 35.004,32.961C34.788,32.52 34.667,32.024 34.667,31.5C34.667,29.939 35.742,28.627 37.192,28.265C37.192,28.265 37.676,25.121 37,24C36.324,22.879 33.137,21.538 33.137,21.538ZM59.4,22.075C58.611,20.834 55.205,22.804 54.375,23.974C53.545,25.143 54.23,28.247 54.23,28.247C55.719,28.58 56.833,29.911 56.833,31.5C56.833,31.94 56.748,32.36 56.593,32.745C56.593,32.745 58.963,35.211 59.475,34.846C61.106,33.684 60.181,23.302 59.4,22.075ZM12.813,20.972C12.813,20.972 6.598,23.64 6.59,24C6.558,25.522 7.369,27.159 8.098,28.633C8.824,30.098 9.679,31.534 10.514,32.538C10.975,33.092 11.403,33.517 11.809,33.658C13.572,34.269 17.264,33.879 17.451,33.815C18.031,33.617 20.346,32.581 20.346,32.581C20.23,32.242 20.167,31.878 20.167,31.5C20.167,29.903 21.293,28.566 22.793,28.242C22.793,28.242 23.208,25.071 22.508,24C21.727,22.805 18.109,21.074 18.109,21.074C17.498,21.841 16.556,22.333 15.5,22.333C14.398,22.333 13.42,21.797 12.813,20.972ZM23.5,29.833C24.42,29.833 25.167,30.58 25.167,31.5C25.167,32.42 24.42,33.167 23.5,33.167C22.58,33.167 21.833,32.42 21.833,31.5C21.833,30.58 22.58,29.833 23.5,29.833ZM37.999,29.833C37.079,29.834 36.333,30.581 36.333,31.5C36.333,32.42 37.08,33.167 38,33.167C38.92,33.167 39.667,32.42 39.667,31.5C39.667,30.581 38.921,29.834 38.002,29.833L37.999,29.833ZM54.84,32.491C55.045,32.214 55.167,31.871 55.167,31.5C55.167,30.58 54.42,29.833 53.5,29.833C52.58,29.833 51.833,30.58 51.833,31.5C51.833,31.765 51.895,32.015 52.005,32.237L52.011,32.249C52.285,32.793 52.849,33.167 53.5,33.167C54.041,33.167 54.523,32.908 54.827,32.508C54.831,32.502 54.836,32.496 54.84,32.491ZM27.308,9.539C27.308,9.539 24.576,7.589 23,7.507C21.282,7.417 18.174,7.521 17,9C15.826,10.479 16.333,15.772 16.333,15.772C17.77,16.142 18.833,17.448 18.833,19C18.833,19.179 18.819,19.355 18.792,19.526C18.792,19.526 22.241,22.617 23.66,22.772C25.079,22.926 27.305,20.454 27.305,20.454C27.215,20.152 27.167,19.832 27.167,19.5C27.167,17.948 28.23,16.642 29.667,16.272L29.667,13.728C28.23,13.358 27.167,12.052 27.167,10.5C27.167,10.166 27.216,9.843 27.308,9.539ZM42.367,9.359L38.507,7.396L33.708,9.592C33.79,9.881 33.833,10.185 33.833,10.5C33.833,12.052 32.77,13.358 31.333,13.728L31.333,16.272C32.77,16.642 33.833,17.948 33.833,19.5C33.833,19.667 33.821,19.832 33.797,19.993C33.797,19.993 36.569,22.418 38.051,22.487C39.533,22.556 42.691,20.404 42.691,20.404C42.675,20.272 42.667,20.137 42.667,20C42.667,18.448 43.73,17.142 45.167,16.772L45.167,13.817C43.483,13.65 42.167,12.227 42.167,10.5C42.167,10.099 42.238,9.715 42.367,9.359ZM49.881,8.485C49.521,8.128 48.627,9.344 48.627,9.344C48.76,9.704 48.833,10.093 48.833,10.5C48.833,11.866 48.01,13.041 46.833,13.556L46.833,16.772C48.27,17.142 49.333,18.448 49.333,20C49.333,20.151 49.323,20.3 49.304,20.445C49.304,20.445 52.11,22.194 53.433,22C54.986,21.772 58.384,19.351 58.127,18.757C56.415,14.806 51.464,10.054 49.881,8.485ZM14.667,9.274C10.699,12.123 3.624,17.186 3.771,18.702C3.775,18.742 5.095,21.145 6.484,21.49C7.972,21.86 12.193,19.424 12.193,19.424C12.176,19.285 12.167,19.144 12.167,19C12.167,17.448 13.23,16.142 14.667,15.772L14.667,9.274ZM46,18.333C46.92,18.333 47.667,19.08 47.667,20C47.667,20.92 46.92,21.667 46,21.667C45.08,21.667 44.333,20.92 44.333,20C44.333,19.08 45.08,18.333 46,18.333ZM30.5,17.833C31.42,17.833 32.167,18.58 32.167,19.5C32.167,20.42 31.42,21.167 30.5,21.167C29.58,21.167 28.833,20.42 28.833,19.5C28.833,18.58 29.58,17.833 30.5,17.833ZM15.5,17.333C16.42,17.333 17.167,18.08 17.167,19C17.167,19.92 16.42,20.667 15.5,20.667C14.58,20.667 13.833,19.92 13.833,19C13.833,18.08 14.58,17.333 15.5,17.333ZM30.5,8.833C31.42,8.833 32.167,9.58 32.167,10.5C32.167,11.42 31.42,12.167 30.5,12.167C29.58,12.167 28.833,11.42 28.833,10.5C28.833,9.58 29.58,8.833 30.5,8.833ZM45.5,8.833C46.42,8.833 47.167,9.58 47.167,10.5C47.167,11.42 46.42,12.167 45.5,12.167C44.58,12.167 43.833,11.42 43.833,10.5C43.833,9.58 44.58,8.833 45.5,8.833ZM37.475,4.31C35.472,3.819 28.133,3.134 25.771,2.945C25.388,2.915 24.445,3.031 23.898,3.289C23.898,3.289 23.795,4.944 24.293,5.506C25.005,6.31 28.174,8.113 28.174,8.113C28.775,7.528 29.596,7.167 30.5,7.167C31.422,7.167 32.257,7.542 32.86,8.147C32.86,8.147 36.921,6.513 37.789,5.891C38.195,5.601 37.96,4.429 37.475,4.31ZM39.725,4.644C39.261,4.652 39.122,5.696 39.463,6.012C40.063,6.567 43.324,7.976 43.324,7.976C43.908,7.472 44.669,7.167 45.5,7.167C46.331,7.167 47.091,7.471 47.675,7.975C47.675,7.975 48.378,7.312 48.299,6.95C48.22,6.589 47.36,6.042 46.803,5.894C45.344,5.507 40.948,4.625 39.725,4.644ZM22.354,4.128C21.377,4.709 20.228,5.443 18.985,6.274C18.985,6.274 22.016,5.737 22.577,5.379C22.935,5.152 22.354,4.128 22.354,4.128Z" style="fill:rgb(220,220,220);"/>
    </g>
    <g transform="matrix(1,-5.91646e-31,5.91646e-31,1,3.4687,15.4281)">
        <path d="M489.166,33.465C488.075,33.616 487.802,34.192 487.711,36.648C487.65,38.648 487.711,39.042 488.257,39.436C488.742,39.8 490.864,39.861 499.958,39.861C510.477,39.861 511.053,39.921 511.629,40.497C512.963,41.831 512.933,38.648 512.053,94.548C511.781,111.13 512.053,109.887 508.598,110.251C505.869,110.524 505.627,110.857 505.627,114.04C505.627,117.769 504.869,117.557 516.964,117.557C526.422,117.557 527.18,117.496 527.696,116.95C528.15,116.465 528.211,115.435 528.211,109.25C528.211,97.489 528.817,68.932 529.363,54.988C529.636,47.803 529.757,41.164 529.636,40.194C529.424,38.315 528.514,35.95 527.665,35.041C526.544,33.768 525.452,33.707 507.355,33.525C497.745,33.434 489.53,33.404 489.166,33.465ZM410.318,32.191C409.833,32.737 409.773,35.011 409.803,61.475C409.803,89.728 409.803,90.183 409.166,90.819C408.56,91.426 408.105,91.456 399.132,91.456L389.735,91.426L388.916,92.244C388.189,92.972 388.128,93.214 388.31,94.881C388.644,97.852 388.734,98.095 389.674,98.337C390.159,98.459 394.615,98.58 399.557,98.58L408.59,98.61L409.197,99.368C409.773,100.065 409.803,100.702 409.803,108.432C409.803,114.495 409.894,116.89 410.197,117.163C410.682,117.648 424.505,117.708 425.415,117.223C425.991,116.89 426.052,116.465 426.052,108.675C426.052,99.459 426.021,99.55 428.386,98.64C430.023,98.004 430.508,97.094 430.508,94.548C430.508,92.426 430.083,91.82 428.416,91.395C425.839,90.759 426.052,93.093 426.052,61.293C426.052,33.313 426.021,32.858 425.415,32.222C424.809,31.646 424.354,31.585 417.806,31.585C411.44,31.585 410.803,31.646 410.318,32.191ZM706.702,94.396C706.096,95.397 706.429,116.041 707.036,116.647C707.339,116.95 709.249,117.102 714.584,117.163C721.405,117.253 721.738,117.223 722.344,116.617C722.981,115.98 723.011,115.617 723.011,105.188C723.011,97.246 722.92,94.336 722.617,94.063C722.344,93.79 720.131,93.669 714.675,93.669C707.157,93.669 707.096,93.669 706.702,94.396ZM662.443,94.063C662.019,94.396 661.897,95.306 661.837,100.035L661.746,105.613L659.381,109.432C658.108,111.524 656.774,113.616 656.441,114.101C655.804,115.01 655.653,116.435 656.168,116.768C656.441,116.92 668.658,117.041 672.477,116.92C673.023,116.89 675.054,114.04 675.63,112.494C675.781,112.039 676.448,110.584 677.115,109.281L678.298,106.947L678.479,101.005C678.631,96.337 678.57,94.942 678.237,94.396C677.812,93.669 677.722,93.669 670.385,93.669C664.959,93.669 662.837,93.76 662.443,94.063ZM375.275,32.464C374.578,32.525 372.274,32.767 370.182,33.04C366.059,33.525 360.178,34.01 353.721,34.344C351.236,34.465 349.447,34.707 349.114,34.95C348.386,35.465 348.083,39.709 348.689,40.831C349.083,41.558 349.114,41.558 353.449,41.346C359.178,41.073 358.996,40.892 359.148,46.803C359.33,54.23 359.36,54.169 352.994,54.291C347.84,54.381 347.749,54.442 347.749,57.564C347.749,60.444 347.931,60.566 353.115,60.566C357.147,60.566 357.329,60.596 358.087,61.354C358.511,61.778 358.905,62.384 358.935,62.688C358.996,63.021 359.026,66.356 359.026,70.115C359.026,73.874 359.057,85.666 359.117,96.306C359.178,115.162 359.208,115.647 359.845,116.253C360.421,116.859 360.876,116.89 367.151,116.89C373.426,116.89 373.88,116.859 374.487,116.253C375.093,115.647 375.123,115.222 375.123,89.364C375.123,60.444 375.032,61.627 377.063,60.929C377.609,60.717 379.155,60.566 380.519,60.566C383.733,60.566 383.975,60.353 384.066,57.595C384.127,54.624 383.854,54.381 380.277,54.26C378.731,54.23 377.185,54.109 376.791,54.018C375.396,53.715 375.123,52.441 375.123,46.773C375.123,43.893 375.184,41.286 375.305,41.013C375.639,40.164 377.033,39.618 379.489,39.376C382.399,39.103 382.793,38.709 382.975,35.799C383.217,32.434 383.035,32.222 379.489,32.282C377.852,32.313 375.972,32.404 375.275,32.464ZM580.928,31.858C580.625,31.918 580.321,32.343 580.23,32.828C580.14,33.283 580.018,37.648 579.988,42.529L579.927,51.38L579.169,51.987C578.563,52.502 577.896,52.593 575.289,52.593C570.651,52.593 570.863,53.048 570.863,44.166L570.863,36.981L569.257,35.374L562.284,35.496C555.979,35.556 555.282,35.647 554.675,36.193C554.009,36.769 554.009,37.072 554.009,43.923L554.009,51.047L553.22,51.835C552.644,52.381 552.068,52.593 551.189,52.593C549.31,52.593 548.794,53.351 548.946,55.927C549.128,58.383 549.522,58.959 551.401,59.201C554.039,59.565 553.827,57.201 554.009,88C554.16,114.616 554.16,115.374 554.766,115.829C555.736,116.526 629.794,116.496 630.37,115.798C630.613,115.526 630.856,114.374 630.946,113.252C631.25,109.554 634.493,109.887 601.056,109.887C572.561,109.917 572.137,109.887 571.5,109.281C570.863,108.644 570.863,108.189 570.863,84.666C570.863,61.02 570.863,60.687 571.5,59.99C572.379,59.08 573.258,58.868 576.108,59.02C578.078,59.11 578.624,59.262 579.23,59.868L579.927,60.596L580.109,78.148C580.17,87.818 580.382,95.912 580.503,96.124C580.716,96.458 585.445,96.518 602.39,96.518L623.974,96.518L624.489,95.821C624.914,95.215 624.975,92.972 624.975,78.057C624.975,63.264 625.035,60.929 625.46,60.323C626.066,59.444 628.218,58.838 629.794,59.11C631.128,59.323 632.523,58.807 632.765,58.049C633.099,56.958 633.008,53.533 632.644,53.139C632.432,52.926 630.946,52.684 629.279,52.593C624.671,52.35 624.975,53.078 624.975,42.104C624.975,34.95 624.884,32.858 624.55,32.404C624.156,31.858 623.55,31.828 616.699,31.828C609.878,31.828 609.241,31.888 608.847,32.404C608.514,32.858 608.423,35.011 608.423,42.013L608.423,51.047L607.604,51.865C606.816,52.654 606.756,52.654 602.39,52.563C596.115,52.411 596.661,53.381 596.661,42.104C596.661,33.495 596.6,32.949 596.024,32.404C595.479,31.918 594.599,31.858 588.446,31.797C584.626,31.767 581.231,31.797 580.928,31.858ZM461.822,31.979C460.883,32.434 459.579,35.162 456.912,42.407C455.941,45.045 455.062,47.227 453.698,50.41C453.183,51.562 452.789,52.684 452.789,52.926C452.789,53.139 452.425,54.139 452.001,55.109C450.667,58.201 449.545,60.96 448.787,63.112C448.393,64.264 447.757,65.84 447.393,66.598C446.574,68.417 446.544,70.145 447.302,70.872C447.817,71.327 448.878,71.388 455.729,71.388L463.581,71.388L464.066,72.146C464.46,72.722 464.49,73.085 464.217,73.783C463.884,74.662 454.486,93.851 450.727,101.308C448.727,105.31 447.363,108.765 447.363,109.857C447.363,110.19 447.635,110.797 447.969,111.221L448.575,111.979L462.58,112.009C470.28,112.039 476.949,112.13 477.404,112.252C477.859,112.373 478.586,113.04 479.102,113.798L480.011,115.162L487.347,115.253C496.199,115.344 495.835,115.495 495.017,111.858C494.714,110.524 494.168,107.917 493.834,106.067C493.471,104.249 492.743,100.884 492.228,98.61C491.712,96.337 491.227,93.911 491.106,93.244C490.985,92.335 490.742,91.971 490.136,91.759C489.045,91.335 477.222,91.365 476.131,91.759C475.282,92.093 475.282,92.123 475.494,94.366C475.616,95.609 476.07,98.034 476.495,99.732C477.465,103.612 477.465,104.006 476.495,104.976C475.767,105.704 475.494,105.764 472.372,105.764C468.704,105.764 467.582,105.492 467.249,104.521C467.037,103.824 467.249,103.339 470.341,96.913C471.22,95.094 472.493,92.365 473.19,90.85C473.888,89.334 474.918,87.091 475.525,85.878C477.192,82.392 479.011,78.451 480.314,75.692C480.951,74.298 482.254,71.57 483.164,69.63C484.104,67.72 485.468,64.779 486.195,63.112C486.953,61.445 487.893,59.505 488.287,58.807C488.681,58.11 489.166,57.019 489.348,56.382C489.56,55.746 489.924,55.048 490.166,54.836C490.803,54.291 491.106,52.654 490.651,52.108C490.318,51.744 488.984,51.653 483.012,51.653C474.373,51.653 474.858,51.441 472.645,56.049C468.946,63.779 468.583,64.385 467.158,64.385C466.127,64.385 465.521,63.87 465.521,63.051C465.521,62.748 466.036,61.142 466.642,59.535C467.279,57.928 468.219,55.473 468.704,54.078C469.219,52.714 469.765,51.411 469.916,51.229C470.068,51.017 470.432,50.077 470.765,49.107C471.068,48.137 471.493,47.076 471.705,46.712C471.917,46.378 472.402,45.105 472.796,43.893C473.19,42.71 473.675,41.407 473.918,41.043C474.16,40.649 474.585,39.588 474.888,38.648C475.191,37.709 475.797,36.344 476.191,35.617C477.071,34.101 477.162,32.798 476.464,32.1C476.04,31.676 474.949,31.615 469.219,31.615C465.369,31.646 462.186,31.767 461.822,31.979ZM348.871,69.326C348.598,69.63 348.356,70.297 348.356,70.842C348.356,72.813 347.719,83.999 347.416,87.606C346.688,95.973 346.143,104.885 346.143,108.22C346.143,112.646 346.234,112.737 350.114,112.615C353.539,112.494 353.388,112.555 353.903,111.736C354.691,110.524 355.389,101.217 356.025,83.786C356.207,78.815 356.48,73.722 356.662,72.509C356.995,70.327 356.965,70.266 356.177,69.569C355.419,68.932 354.995,68.841 352.357,68.841C350.053,68.841 349.265,68.963 348.871,69.326ZM302.733,40.77C302.248,41.316 302.217,44.075 302.217,73.874L302.217,106.371L302.914,106.856C303.915,107.553 317.859,107.614 318.405,106.916C318.951,106.28 318.951,41.255 318.405,40.649C318.132,40.285 316.556,40.194 310.675,40.194C303.915,40.194 303.218,40.255 302.733,40.77ZM226.401,40.528C225.734,40.922 225.31,42.407 225.067,45.287C224.946,46.439 224.582,48.349 224.249,49.561C223.885,50.774 223.46,52.896 223.279,54.321C223.066,55.746 222.581,58.322 222.157,60.081C221.763,61.839 221.248,64.476 221.066,65.962C220.853,67.477 220.429,69.69 220.096,70.903C219.762,72.146 219.338,74.328 219.156,75.753C218.944,77.208 218.519,79.482 218.155,80.816C217.822,82.119 217.307,84.696 217.064,86.484C216.822,88.273 216.246,91.244 215.821,93.063C215.367,94.881 215.003,96.822 215.003,97.367C215.003,97.943 214.548,100.126 214.002,102.248C212.638,107.674 212.183,107.341 221.066,107.341L228.008,107.371L228.675,106.522C229.038,106.067 229.341,105.401 229.341,105.067C229.341,104.764 229.614,103.46 229.948,102.218C230.312,100.975 230.736,98.792 230.918,97.367C231.13,95.942 231.615,93.426 232.039,91.759C232.434,90.092 232.888,87.818 233.009,86.666C233.131,85.514 233.434,84.12 233.707,83.544C234.556,81.725 235.192,81.573 242.831,81.573L249.682,81.573L250.652,82.453C251.471,83.18 251.683,83.665 251.926,85.484C252.108,86.666 252.532,88.667 252.896,89.94C253.229,91.183 253.684,93.305 253.866,94.609C254.048,95.942 254.533,98.307 254.927,99.883C255.351,101.46 255.776,103.521 255.897,104.491C256.261,107.432 256.048,107.341 264.203,107.341C270.145,107.341 271.327,107.28 271.66,106.856C272.176,106.249 271.933,103.218 271.024,99.732C270.66,98.307 270.145,95.67 269.872,93.881C269.629,92.093 269.144,89.637 268.811,88.425C268.477,87.182 268.053,85.029 267.841,83.635C267.659,82.24 267.204,79.997 266.871,78.663C266.537,77.299 266.052,74.783 265.779,72.994C265.507,71.236 264.931,68.417 264.506,66.75C264.051,65.052 263.688,63.233 263.688,62.688C263.688,62.142 263.354,60.202 262.899,58.353C262.445,56.534 261.899,53.593 261.657,51.835C261.02,47.288 259.807,43.711 258.534,42.438C256.352,40.285 257.049,40.376 241.255,40.285C231.918,40.225 226.734,40.316 226.401,40.528ZM379.004,69.296C378.428,69.569 377.973,69.963 377.973,70.175C377.943,70.418 377.943,75.905 377.943,82.362C377.943,96.276 377.639,95.245 381.792,95.245C383.702,95.276 384.43,95.124 384.976,94.7L385.673,94.124L385.642,82.028C385.582,71.843 385.521,69.872 385.127,69.478C384.46,68.811 380.368,68.69 379.004,69.296ZM606.028,59.292C608.514,59.868 608.423,59.262 608.423,74.48C608.423,82.968 608.302,88.212 608.089,88.576C607.635,89.425 605.846,89.849 602.542,89.849C599.238,89.849 597.419,89.425 596.964,88.576C596.509,87.727 596.54,61.384 596.994,60.505C597.176,60.172 597.783,59.686 598.328,59.444C599.51,58.929 604.118,58.838 606.028,59.292ZM657.047,33.465C655.865,33.798 655.865,34.01 655.865,56.261C655.865,72.691 655.956,78.027 656.229,78.33C656.471,78.572 657.714,78.694 659.594,78.694C662.898,78.694 663.807,78.997 663.807,80.088C663.807,80.785 662.958,81.634 660.291,83.635C654.076,88.273 653.864,88.515 654.592,89.395C654.925,89.789 656.168,89.849 663.322,89.698C667.93,89.607 672.083,89.395 672.538,89.213C673.023,89.031 673.932,88.455 674.569,87.939C677.6,85.484 682.602,81.452 684.148,80.24L685.876,78.875L691.757,78.754C695.001,78.694 698.123,78.754 698.699,78.845C699.366,78.966 700.851,79.967 702.701,81.513C708.703,86.515 711.765,88.879 712.674,89.213C713.28,89.455 716.706,89.637 721.95,89.728C733.348,89.91 733.348,89.91 724.951,83.635C722.314,81.695 721.435,80.785 721.435,80.118C721.435,79.057 721.89,78.875 725.406,78.694C728.438,78.572 728.589,78.512 728.892,77.754C729.104,77.239 729.165,70.236 729.074,57.534C728.892,38.254 728.892,38.103 728.195,37.011C727.134,35.283 726.316,34.526 725.012,34.101C724.072,33.768 716.221,33.646 690.635,33.525C672.386,33.434 657.259,33.404 657.047,33.465ZM388.401,63.445C387.673,63.87 387.704,64.81 388.431,66.992C388.765,67.932 389.129,69.508 389.25,70.448C389.371,71.418 389.826,73.48 390.22,75.056C390.644,76.632 391.16,78.906 391.342,80.149C392.16,85.423 392.13,85.393 400.224,85.393C406.105,85.393 406.287,85.363 406.772,84.696C407.408,83.756 407.408,83.392 406.438,80.088C405.983,78.542 405.347,75.905 405.044,74.237C404.71,72.6 404.134,69.933 403.77,68.356C403.376,66.78 403.013,65.173 402.922,64.81C402.618,63.203 402.285,63.112 395.373,63.112C391.614,63.142 388.734,63.264 388.401,63.445ZM243.62,46.439C244.681,47.197 245.166,48.622 245.742,52.654C246.014,54.624 246.499,57.383 246.833,58.807C247.166,60.202 247.591,62.657 247.773,64.234C247.954,65.81 248.47,68.508 248.925,70.266C249.864,73.843 249.713,74.965 248.258,75.541C247.803,75.692 245.287,75.844 242.649,75.844C235.495,75.844 234.828,75.359 235.98,70.994C236.344,69.721 236.829,67.023 237.072,65.022C237.344,62.991 237.829,60.141 238.193,58.656C238.527,57.17 238.981,54.594 239.194,52.926C239.921,46.894 241.316,44.832 243.62,46.439ZM683.208,59.596C684.148,60.111 684.512,61.687 684.512,65.507C684.512,69.902 684.3,70.963 683.36,71.6C682.451,72.176 676.327,72.449 674.539,71.994C672.689,71.509 672.356,70.691 672.235,66.386C672.083,59.626 672.356,59.323 678.54,59.292C680.783,59.292 682.905,59.444 683.208,59.596ZM711.765,60.05C712.644,60.808 712.674,60.869 712.765,65.082C712.917,71.782 712.583,72.206 706.46,72.176C703.974,72.146 702.216,71.994 701.761,71.752C700.7,71.176 700.336,69.236 700.457,64.779C700.579,60.899 700.579,60.808 701.458,60.05C702.307,59.323 702.579,59.292 706.611,59.292C710.673,59.292 710.916,59.323 711.765,60.05ZM388.613,34.92C388.068,35.314 388.037,35.496 388.431,37.224C388.644,38.254 389.007,40.225 389.25,41.619C389.492,43.044 389.977,45.166 390.311,46.409C390.675,47.621 391.129,49.713 391.342,51.017C391.857,54.412 392.19,55.321 393.13,55.746C393.645,55.988 396.131,56.109 400.102,56.109C405.892,56.109 406.347,56.079 406.953,55.473C407.651,54.776 407.651,54.866 406.559,50.865C406.226,49.622 405.62,47.045 405.195,45.136C404.013,39.618 402.891,35.435 402.467,34.92C401.921,34.253 389.523,34.253 388.613,34.92ZM710.613,40.588C712.401,41.801 712.826,43.044 712.826,46.924C712.826,50.986 712.583,51.774 711.219,52.259C709.734,52.775 703.186,52.714 701.882,52.169C700.579,51.623 700.427,50.956 700.427,46.106C700.427,42.165 700.791,40.619 701.791,40.194C702.185,40.043 704.065,39.921 706.005,39.891C709.188,39.891 709.673,39.952 710.613,40.588ZM683.572,40.497C684.33,41.073 684.33,41.225 684.33,46.197C684.33,52.866 684.724,52.441 678.449,52.441C672.022,52.441 672.235,52.684 672.265,46.257C672.265,39.831 672.174,39.921 678.661,39.891C682.299,39.891 682.936,39.952 683.572,40.497Z" style="fill:rgb(220,220,220);fill-rule:nonzero;"/>
    </g>
</svg>
