<svg xmlns="http://www.w3.org/2000/svg" viewBox="0 0 344.36 40.88"><defs><style>.cls-1{font-size:35px;font-family:HiraginoSansGB-W3-GBpc-EUC-H, Hiragino Sans GB;}.cls-1,.cls-2{fill:#fff;}.cls-3{fill:none;stroke:#6d6e71;stroke-miterlimit:10;stroke-width:0.5px;}</style></defs><title>Asset 4</title><g id="Layer_2" data-name="Layer 2"><g id="Layer_1-2" data-name="Layer 1"><text class="cls-1" transform="translate(0 31.3)">自由写作</text><path class="cls-2" d="M268.27,6.13c-.34,0-.43.23-.46,1s0,.75.17.88.82.13,3.69.13c3.31,0,3.49,0,3.67.2.42.42.41-.58.13,17-.08,5.22,0,4.83-1.08,4.94-.86.09-.94.19-.94,1.2,0,1.17-.24,1.1,3.57,1.1,3,0,3.21,0,3.38-.19s.16-.47.16-2.42c0-3.7.19-12.69.36-17.08.09-2.26.13-4.35.09-4.65a3.55,3.55,0,0,0-.62-1.63c-.36-.4-.7-.42-6.4-.47C271,6.12,268.38,6.11,268.27,6.13Zm-24.82-.4c-.15.17-.17.88-.16,9.21,0,8.9,0,9-.2,9.24s-.33.2-3.16.2h-3l-.26.26c-.23.23-.25.3-.19.83.1.93.13,1,.43,1.08.15,0,1.55.08,3.11.08h2.84l.19.24c.18.22.19.42.19,2.85a10.34,10.34,0,0,0,.13,2.75,25.49,25.49,0,0,0,4.79,0c.18-.11.2-.24.2-2.69,0-2.9,0-2.87.73-3.16.52-.2.67-.49.67-1.29s-.13-.86-.66-1c-.81-.2-.74.53-.74-9.47,0-8.81,0-8.95-.2-9.15s-.34-.2-2.4-.2S243.61,5.55,243.45,5.73ZM336.74,25.3a41.88,41.88,0,0,0,.1,7,8.21,8.21,0,0,0,2.38.16c2.14,0,2.25,0,2.44-.17s.21-.32.21-3.6a15.93,15.93,0,0,0-.13-3.5,9.47,9.47,0,0,0-2.5-.12C336.88,25.08,336.86,25.08,336.74,25.3Zm-13.93-.1c-.14.1-.18.39-.19,1.88l0,1.75L321.84,30c-.4.65-.82,1.31-.92,1.47s-.25.73-.09.84,3.93.08,5.13,0A3.44,3.44,0,0,0,327,31a9.16,9.16,0,0,1,.46-1l.38-.74.05-1.87a6,6,0,0,0-.07-2.08c-.14-.22-.17-.22-2.47-.22A9.24,9.24,0,0,0,322.81,25.2ZM232.43,5.81,230.82,6c-1.3.16-3.15.31-5.18.41a5.43,5.43,0,0,0-1.45.19,2.75,2.75,0,0,0-.13,1.86c.12.22.13.22,1.5.16,1.8-.09,1.74-.15,1.79,1.72.06,2.33.07,2.31-1.94,2.35-1.62,0-1.65.05-1.65,1s.06.95,1.69.95c1.27,0,1.33,0,1.57.24a1.06,1.06,0,0,1,.26.42c0,.11,0,1.16,0,2.34s0,4.9,0,8.25c0,5.93,0,6.08.23,6.27s.32.2,2.3.2,2.12,0,2.31-.2.2-.32.2-8.46c0-9.1,0-8.73.61-8.95a4.07,4.07,0,0,1,1.09-.11c1,0,1.08-.07,1.11-.94s-.06-1-1.19-1.05c-.49,0-1-.05-1.1-.07-.44-.1-.52-.5-.52-2.28,0-.91,0-1.73.05-1.82.11-.26.55-.44,1.32-.51s1-.21,1.1-1.13,0-1.12-1.1-1.1C233.24,5.76,232.64,5.79,232.43,5.81Zm64.72-.19a.39.39,0,0,0-.22.31c0,.14-.07,1.51-.08,3.05v2.79l-.24.19c-.19.16-.4.19-1.22.19-1.46,0-1.4.14-1.4-2.65V7.23l-.5-.5-2.2,0c-2,0-2.2,0-2.39.22s-.21.27-.21,2.43v2.24l-.25.25a.84.84,0,0,1-.64.24c-.59,0-.75.24-.71,1s.19,1,.78,1c.83.11.76-.63.82,9.06.05,8.38.05,8.62.24,8.76s23.61.21,23.79,0a2,2,0,0,0,.18-.8c.1-1.17,1.12-1.06-9.4-1.06-9,0-9.11,0-9.31-.19s-.2-.34-.2-7.75,0-7.55.2-7.76.56-.36,1.45-.31c.62,0,.8.08,1,.27l.22.23.05,5.52c0,3,.09,5.59.13,5.66s1.55.12,6.89.12h6.79l.16-.22c.13-.19.15-.89.15-5.59s0-5.39.16-5.58a1.58,1.58,0,0,1,1.36-.38c.42.07.86-.1.94-.34a3.67,3.67,0,0,0,0-1.54,3.17,3.17,0,0,0-1.06-.17c-1.45-.08-1.36.15-1.36-3.3a12.18,12.18,0,0,0-.13-3.06c-.12-.17-.31-.18-2.47-.18s-2.35,0-2.47.18a11.17,11.17,0,0,0-.14,3v2.84l-.25.26c-.25.25-.27.25-1.64.22-2-.05-1.81.26-1.81-3.29,0-2.71,0-2.89-.2-3.06s-.45-.17-2.38-.19C298.31,5.59,297.25,5.6,297.15,5.62Zm-37.49,0c-.29.14-.7,1-1.54,3.28-.31.83-.58,1.52-1,2.52a4.31,4.31,0,0,0-.29.79,3.33,3.33,0,0,1-.25.69c-.42,1-.77,1.84-1,2.52a10.45,10.45,0,0,1-.44,1.1,1.31,1.31,0,0,0,0,1.34c.17.14.5.16,2.66.16h2.47l.15.24a.49.49,0,0,1,.05.52c-.11.27-3.06,6.31-4.25,8.66a10.36,10.36,0,0,0-1.06,2.69.89.89,0,0,0,.19.43l.2.24h4.4c2.43,0,4.53,0,4.67.07a1.3,1.3,0,0,1,.53.49l.29.43,2.31,0c2.78,0,2.67.07,2.41-1.07-.09-.42-.27-1.24-.37-1.82s-.34-1.63-.51-2.35-.31-1.48-.35-1.69-.11-.4-.3-.47a26,26,0,0,0-4.41,0c-.27.11-.27.12-.2.82a15.08,15.08,0,0,0,.31,1.69c.31,1.22.31,1.35,0,1.65s-.31.25-1.3.25c-1.15,0-1.5-.08-1.61-.39s0-.37,1-2.39l.89-1.91c.22-.48.55-1.18.74-1.57.52-1.09,1.09-2.33,1.5-3.2.2-.44.61-1.3.9-1.91s.73-1.53,1-2.05.53-1.14.65-1.36a4.15,4.15,0,0,0,.34-.76,1.29,1.29,0,0,1,.26-.49.82.82,0,0,0,.15-.86c-.11-.11-.53-.14-2.41-.14-2.72,0-2.56-.07-3.26,1.39-1.16,2.43-1.28,2.62-1.73,2.62s-.51-.16-.51-.42a7.16,7.16,0,0,1,.35-1.11c.2-.5.5-1.28.65-1.72a7.12,7.12,0,0,1,.38-.89,4.78,4.78,0,0,0,.27-.67,5.16,5.16,0,0,1,.29-.75,6.78,6.78,0,0,0,.35-.89,5.62,5.62,0,0,1,.35-.9,4.63,4.63,0,0,0,.31-.75,5.66,5.66,0,0,1,.41-1c.27-.47.3-.88.08-1.1s-.47-.15-2.28-.15A13.16,13.16,0,0,0,259.66,5.66ZM224.12,17.41a.82.82,0,0,0-.17.48c0,.62-.2,4.14-.29,5.28-.23,2.63-.4,5.44-.4,6.49,0,1.39,0,1.42,1.25,1.38s1,0,1.19-.28.47-3.31.67-8.8c0-1.56.14-3.16.2-3.54.1-.69.09-.71-.16-.93s-.37-.23-1.2-.23S224.24,17.3,224.12,17.41Zm-14.53-9c-.15.17-.16,1-.16,10.42V29.07l.22.16a18.13,18.13,0,0,0,4.88,0c.17-.2.17-20.66,0-20.85s-.59-.14-2.44-.14C210,8.25,209.75,8.26,209.59,8.43Zm-24-.08c-.21.12-.34.59-.42,1.5a9.58,9.58,0,0,1-.26,1.34,11.06,11.06,0,0,0-.3,1.5c-.07.45-.22,1.26-.36,1.81s-.28,1.39-.34,1.86-.2,1.17-.3,1.55a13.37,13.37,0,0,0-.3,1.53A16,16,0,0,1,183,21c-.1.41-.26,1.22-.34,1.78s-.26,1.5-.39,2.07a10,10,0,0,0-.26,1.36,11.06,11.06,0,0,1-.31,1.54c-.43,1.7-.57,1.6,2.22,1.6h2.19l.21-.27a1,1,0,0,0,.21-.46,5.73,5.73,0,0,1,.19-.89,13.81,13.81,0,0,0,.3-1.53c.07-.45.22-1.24.35-1.77a15.2,15.2,0,0,0,.31-1.6,3.77,3.77,0,0,1,.22-1c.27-.57.47-.62,2.87-.62h2.16l.3.28c.26.22.33.38.4.95a13.16,13.16,0,0,0,.31,1.4,14.17,14.17,0,0,1,.3,1.47c.06.42.21,1.17.34,1.66a12.59,12.59,0,0,1,.3,1.45c.12.93.05.9,2.62.9,1.87,0,2.24,0,2.34-.15a4.14,4.14,0,0,0-.2-2.25c-.11-.44-.27-1.27-.36-1.84a16.56,16.56,0,0,0-.33-1.72c-.11-.39-.24-1.06-.31-1.5s-.2-1.15-.3-1.57-.26-1.22-.35-1.78-.26-1.44-.4-2a7.71,7.71,0,0,1-.25-1.28,9.5,9.5,0,0,0-.25-1.36,19.4,19.4,0,0,1-.39-2.05,6.09,6.09,0,0,0-1-3c-.68-.68-.46-.65-5.43-.68A41.86,41.86,0,0,0,185.57,8.35Zm48,9c-.18.09-.33.21-.33.28v3.84c0,4.38-.1,4.05,1.21,4.05.6,0,.83,0,1-.17l.22-.18V21.41c0-3.2,0-3.82-.16-3.95A3.11,3.11,0,0,0,233.6,17.4Zm71.45-3.14c.78.18.75,0,.75,4.78a41.66,41.66,0,0,1-.1,4.43c-.14.27-.71.4-1.75.4s-1.61-.13-1.75-.4a86.69,86.69,0,0,1,0-8.83,1,1,0,0,1,.42-.34A6.25,6.25,0,0,1,305.05,14.26Zm16.06-8.13c-.37.1-.37.17-.37,7.17a66.38,66.38,0,0,0,.11,7,2.74,2.74,0,0,0,1.06.11c1,0,1.33.1,1.33.44s-.27.49-1.11,1.12c-2,1.46-2,1.53-1.8,1.81.11.12.5.14,2.75.1a24.43,24.43,0,0,0,2.9-.16,2.63,2.63,0,0,0,.64-.4c1-.77,2.53-2,3-2.42l.54-.43,1.85,0c1,0,2,0,2.19,0a4.34,4.34,0,0,1,1.26.84,23.29,23.29,0,0,0,3.14,2.42,18.07,18.07,0,0,0,2.91.17c3.59.05,3.59.05,1-1.92-.83-.61-1.11-.9-1.11-1.11s.15-.39,1.25-.45,1-.05,1.1-.29.09-2.37.06-6.37c-.06-6.07-.06-6.11-.28-6.46a1.75,1.75,0,0,0-1-.91c-.3-.11-2.77-.15-10.82-.18C325.94,6.12,321.17,6.11,321.11,6.13Zm-84.55,9.43c-.23.14-.22.43,0,1.12a6.12,6.12,0,0,1,.25,1.09c0,.3.18.95.31,1.45s.29,1.21.35,1.6c.26,1.66.25,1.65,2.8,1.65,1.85,0,1.91,0,2.06-.22s.2-.41-.11-1.45c-.14-.49-.34-1.32-.44-1.84s-.28-1.36-.4-1.85-.23-1-.26-1.12c-.1-.5-.2-.53-2.38-.53A15.54,15.54,0,0,0,236.56,15.56ZM191,10.21c.33.24.49.69.67,2,.08.62.24,1.49.34,1.93a16.86,16.86,0,0,1,.3,1.71,15.76,15.76,0,0,0,.36,1.9c.29,1.13.25,1.48-.21,1.66a10.82,10.82,0,0,1-1.77.1c-2.25,0-2.46-.16-2.1-1.53a14.88,14.88,0,0,0,.35-1.88c.08-.64.24-1.54.35-2s.25-1.28.32-1.81C189.83,10.35,190.26,9.7,191,10.21Zm138.35,4.14c.3.16.41.66.41,1.86,0,1.39-.07,1.72-.36,1.92a7.58,7.58,0,0,1-2.78.12c-.58-.15-.68-.41-.72-1.76-.05-2.13,0-2.22,2-2.23A7.45,7.45,0,0,1,329.34,14.35Zm9,.14c.28.24.29.26.31,1.59.05,2.11-.05,2.24-2,2.23a5.73,5.73,0,0,1-1.48-.13c-.33-.18-.45-.79-.41-2.2,0-1.22,0-1.25.32-1.49s.35-.23,1.62-.23S338.06,14.27,338.33,14.49ZM236.62,6.59c-.17.12-.18.18-.05.72.06.32.18.94.25,1.38s.23,1.12.34,1.51a13.3,13.3,0,0,1,.32,1.45c.16,1.07.27,1.36.56,1.49a10.5,10.5,0,0,0,2.2.11c1.82,0,2,0,2.16-.2s.22-.19-.13-1.45c-.1-.39-.29-1.2-.43-1.8A17.24,17.24,0,0,0,241,6.59,15.16,15.16,0,0,0,236.62,6.59ZM338,8.37c.56.38.69.77.69,2s-.07,1.53-.5,1.68a8.52,8.52,0,0,1-2.94,0c-.41-.17-.46-.38-.46-1.9,0-1.24.12-1.73.43-1.86a7.18,7.18,0,0,1,1.33-.1C337.52,8.15,337.67,8.17,338,8.37Zm-8.51,0c.23.18.23.23.23,1.79,0,2.1.13,2-1.85,2s-1.95.08-1.94-1.95,0-2,2-2C329.06,8.15,329.26,8.17,329.46,8.34Z"/><line class="cls-3" x1="159.49" x2="159.49" y2="37.81"/></g></g></svg>