<svg id="黑色背景" xmlns="http://www.w3.org/2000/svg" xmlns:xlink="http://www.w3.org/1999/xlink" viewBox="0 0 318.45 96.47"><defs><style>.cls-1,.cls-2,.cls-3{fill:#fff;}.cls-1{clip-rule:evenodd;}.cls-3{fill-rule:evenodd;}.cls-4{clip-path:url(#clip-path);}.cls-5{clip-path:url(#clip-path-2);}.cls-6{clip-path:url(#clip-path-3);}.cls-7{clip-path:url(#clip-path-5);}.cls-8{clip-path:url(#clip-path-7);}.cls-9{clip-path:url(#clip-path-9);}.cls-10{clip-path:url(#clip-path-11);}.cls-11{clip-path:url(#clip-path-13);}.cls-12{clip-path:url(#clip-path-15);}.cls-13{clip-path:url(#clip-path-17);}.cls-14{clip-path:url(#clip-path-19);}.cls-15{clip-path:url(#clip-path-21);}.cls-16{clip-path:url(#clip-path-23);}.cls-17{clip-path:url(#clip-path-25);}.cls-18{clip-path:url(#clip-path-27);}.cls-19{clip-path:url(#clip-path-29);}.cls-20{clip-path:url(#clip-path-31);}.cls-21{clip-path:url(#clip-path-33);}.cls-22{clip-path:url(#clip-path-35);}.cls-23{clip-path:url(#clip-path-37);}.cls-24{clip-path:url(#clip-path-39);}.cls-25{clip-path:url(#clip-path-41);}.cls-26{clip-path:url(#clip-path-43);}.cls-27{clip-path:url(#clip-path-45);}.cls-28{clip-path:url(#clip-path-47);}</style><clipPath id="clip-path"><path class="cls-1" d="M302,65.89c-.4,0-.46-.11-.46-.92V59.59a.5.5,0,0,1,.5-.5h3a1,1,0,0,0,1-1V57a1,1,0,0,0-1-1H290.72a1,1,0,0,0-1,1v1.05a1,1,0,0,0,1,1h2.44c-.3,3.13-1.12,5.3-4.36,6.73a6.2,6.2,0,0,1-.64.26.72.72,0,0,0-.37,1.15l.76,1.11a1.33,1.33,0,0,0,1.5.47l.16-.07c4.65-2,5.82-5.16,6.22-9.65h1.4a.5.5,0,0,1,.5.5v7.15a2,2,0,0,0,2,2h3.74a2,2,0,0,0,2-2V63.3a.51.51,0,0,0-.51-.51H304.2a.5.5,0,0,0-.5.5v1.6a1,1,0,0,1-1,1Z"/></clipPath><clipPath id="clip-path-2"><rect class="cls-2" x="-287.38" y="-165.21" width="833" height="445"/></clipPath><clipPath id="clip-path-3"><path class="cls-1" d="M288.62,44.47a1,1,0,0,0-1-1h-6.1a1,1,0,0,0-1,1V68.07a1,1,0,0,0,1,1h1a1,1,0,0,0,1-1V47a.5.5,0,0,1,.51-.49h1.28a.51.51,0,0,1,.51.5V59.79h-.74a.5.5,0,0,0-.5.5v1.49a.5.5,0,0,0,.49.51h2.55a1,1,0,0,0,1-1V44.47Z"/></clipPath><clipPath id="clip-path-5"><rect class="cls-2" x="293.62" y="50.79" width="8" height="3" rx="1"/></clipPath><clipPath id="clip-path-7"><path class="cls-1" d="M289.62,46.3a1,1,0,0,1,1-1h4.52a.5.5,0,0,0,.49-.51v-1a1,1,0,0,1,1-1h1a1.59,1.59,0,0,1,1.38.93l.44,1.11a.8.8,0,0,0,.67.46h4.52a1,1,0,0,1,1,1v3.48a1,1,0,0,1-1,1h-1a1,1,0,0,1-1-1v-1a.5.5,0,0,0-.51-.5h-9a.51.51,0,0,0-.51.5v1a1,1,0,0,1-1,1h-1a1,1,0,0,1-1-1Z"/></clipPath><clipPath id="clip-path-9"><path class="cls-1" d="M269.19,65.32a.5.5,0,0,1-.5-.51v-1.6a.5.5,0,0,1,.5-.5h3.55a1,1,0,0,0,1-1v-1a1,1,0,0,0-1-1h-3.55a.49.49,0,0,1-.5-.49V57.63a.49.49,0,0,1,.49-.49h4.27a1,1,0,0,0,1-1v-1a1,1,0,0,0-1-1H260.59a1,1,0,0,0-1,1v1a1,1,0,0,0,1,1h4.18a.49.49,0,0,1,.5.49V59.2a.48.48,0,0,1-.49.49h-3.5a1,1,0,0,0-1,1v1a1,1,0,0,0,1,1h3.5a.49.49,0,0,1,.49.5v1.6a.5.5,0,0,1-.5.51h-5.29a1,1,0,0,0-1,1v1.11a1,1,0,0,0,1,1h14.59a1,1,0,0,0,1-1V66.31a1,1,0,0,0-1-1Z"/></clipPath><clipPath id="clip-path-11"><path class="cls-1" d="M258.73,59.51a1.5,1.5,0,0,0,0-1.63L256,54.05c-.17-.23-.09-.41.19-.41h1.5a1,1,0,0,0,1-1V51.46a1,1,0,0,0-1-1h-1.5a.49.49,0,0,1-.49-.49V47.3a1,1,0,0,1,1-1h.46a1,1,0,0,0,1-1v-1a1,1,0,0,0-1-1h-6.48a1,1,0,0,0-1,1v1a1,1,0,0,0,1,1h.87a1,1,0,0,1,1,1V50a.49.49,0,0,1-.5.49h-2.15a1,1,0,0,0-1,1v1.17a1,1,0,0,0,1,1h1.6c.27,0,.4.19.26.44L247.59,62c-.26.49,0,.88.54.88h2a.86.86,0,0,0,.72-.44l1.39-2.74c.12-.25.22-.22.22.06v8.41a1,1,0,0,0,1,1h1.16a1,1,0,0,0,1-1V58.65c0-.28.1-.31.22-.07l1,2.06a.54.54,0,0,0,1,.07Z"/></clipPath><clipPath id="clip-path-13"><path class="cls-1" d="M263.81,49a.5.5,0,0,0,.51.51h5.47a.5.5,0,0,0,.5-.51V46.54a.5.5,0,0,0-.5-.51h-5.47a.51.51,0,0,0-.51.51Zm-3.19,2.37a1,1,0,0,0,1,1h11a1,1,0,0,0,1-1V44.16a1,1,0,0,0-1-1h-11a1,1,0,0,0-1,1Z"/></clipPath><clipPath id="clip-path-15"><path class="cls-1" d="M233.47,63.74a1,1,0,0,1-1-1V49.9a1,1,0,0,1,1-1h7.65a1,1,0,0,0,1-1V46.33a1,1,0,0,0-1-1H220.19a1,1,0,0,0-1,1v1.58a1,1,0,0,0,1,1h7.38a1,1,0,0,1,1,1V62.74a1,1,0,0,1-1,1h-8.91a1,1,0,0,0-1,1v1.45a1,1,0,0,0,1,1h24.11a1,1,0,0,0,1-1V64.74a1,1,0,0,0-1-1Z"/></clipPath><clipPath id="clip-path-17"><path class="cls-1" d="M208.72,55.53c2.26,0,3.73-.4,3.72-3.38v-1a1,1,0,0,0-1-1h-.91a1,1,0,0,0-1,.91h0c0,1.48,0,1.48-1.15,1.48h-3.1c-1.09,0-1.26-.12-1.26-1.15v-1.2a.81.81,0,0,1,.46-.69l5.05-2.17A.91.91,0,0,0,210,46l-.31-.61a1.06,1.06,0,0,0-1.37-.48l-3.83,1.78a.3.3,0,0,1-.46-.3V43.79a1,1,0,0,0-1-1h-1.39a1,1,0,0,0-1,1v7.65c0,3.12.84,4.1,4.16,4.1Z"/></clipPath><clipPath id="clip-path-19"><path class="cls-1" d="M209.55,69.53c2.26,0,3.73-.4,3.72-3.38v-1a1,1,0,0,0-1-1h-.91a1,1,0,0,0-1,.91h0c0,1.48,0,1.48-1.15,1.48h-3.93c-1.09,0-1.26-.12-1.26-1.15V64.29a.77.77,0,0,1,.46-.68l5.65-2.21a.88.88,0,0,0,.48-1.26l-.55-1.08a.57.57,0,0,0-.69-.26l-4.9,1.94c-.25.1-.45,0-.45-.33V57.79a1,1,0,0,0-1-1h-1.39a1,1,0,0,0-1,1v7.65c0,3.12.84,4.1,4.16,4.1Z"/></clipPath><clipPath id="clip-path-21"><path class="cls-1" d="M195.57,45a1.09,1.09,0,0,0-.68,1.29l.26.93a.36.36,0,0,1-.36.48h-3.17a.67.67,0,0,1-.67-1l.85-2.48a.67.67,0,0,0-.67-1h-1.51a1.4,1.4,0,0,0-1.27,1l-1.45,5a.71.71,0,0,0,.72,1H196a.74.74,0,0,1,.66.47v0a.92.92,0,0,0,1.23.58l1.24-.5a1,1,0,0,0,.57-1.3L198,45.22a1.06,1.06,0,0,0-1.32-.61Z"/></clipPath><clipPath id="clip-path-23"><path class="cls-1" d="M190.93,60.69a.5.5,0,0,0,.49.49h3.29a.5.5,0,0,0,.49-.49V60a.5.5,0,0,0-.49-.49h-3.29a.5.5,0,0,0-.49.49Zm0-4.19a.5.5,0,0,0,.49.49h3.29a.49.49,0,0,0,.49-.49V56a.51.51,0,0,0-.49-.5h-3.29a.5.5,0,0,0-.49.5Zm7.16-2.83a1,1,0,0,0-1-1h-8.3a1,1,0,0,0-1,1V69.06a.51.51,0,0,0,.49.51h2.17a.5.5,0,0,0,.5-.5V64.21a.5.5,0,0,1,.5-.5h3.2a.49.49,0,0,1,.49.5V66.3a.49.49,0,0,1-.5.49h-1.06a.5.5,0,0,0-.5.51v1.76a.49.49,0,0,0,.49.5s.27,0,.93,0c1.11,0,2.65,0,2.65,0a1,1,0,0,0,1-1V66.29l0-11.85Z"/></clipPath><clipPath id="clip-path-25"><path class="cls-1" d="M172.54,51.82a.5.5,0,0,0,.5.5h3.36a.5.5,0,0,0,.5-.5V48a.5.5,0,0,0-.5-.5H173a.5.5,0,0,0-.5.5Zm-3.16,2.51a1,1,0,0,0,1,1h8.89a1,1,0,0,0,1-1V45.46a1,1,0,0,0-1-1h-8.89a1,1,0,0,0-1,1Z"/></clipPath><clipPath id="clip-path-27"><path class="cls-1" d="M162.46,61.33h11.86V59.72H162.46Zm0,4.16h11.86V63.8H162.46Zm-3.35,2.68a1,1,0,0,0,1,1H162a.49.49,0,0,0,.49-.49v-.45h11.86v.41a.5.5,0,0,0,.5.5h2a1,1,0,0,0,1-1V58.06a1,1,0,0,0-1-1h-16.7a1,1,0,0,0-1,1Z"/></clipPath><clipPath id="clip-path-29"><path class="cls-1" d="M157.33,48.29h-.54a1,1,0,0,1-1-1V43.8a1,1,0,0,1,1-1h.85a1,1,0,0,1,1,1V44a.51.51,0,0,0,.51.49h8a1,1,0,0,1,1,1v.64a1,1,0,0,1-1,1h-2.23a.51.51,0,0,0-.51.51v.85a.5.5,0,0,0,.5.51h2.91a1,1,0,0,1,1,1v.68a1,1,0,0,1-1,1H164c.94.49,2.89,1.59,4.06,2.28h0a.69.69,0,0,1,0,1.14l-.58.53a3.38,3.38,0,0,1-.35.31,1.07,1.07,0,0,1-1.35.16h0c-.86-.7-2.07-1.57-3.09-2.27a12.09,12.09,0,0,1-4.2,3.58l-.18.1c-.5.25-1.05.25-1.23,0h0a13,13,0,0,0-1.07-1.2h0c-.41-.37-.37-.81.11-1h0a8.24,8.24,0,0,0,4.25-3.62h-3.77a1,1,0,0,1-1-1V50a1,1,0,0,1,1-1h3.94a.51.51,0,0,0,.51-.51l0-.85a.5.5,0,0,0-.5-.51l-1.47,0a.5.5,0,0,0-.51.49v.16a.5.5,0,0,1-.5.5Z"/></clipPath><clipPath id="clip-path-31"><path class="cls-1" d="M140.46,64.18a1,1,0,0,1-1-1V50.34a1,1,0,0,1,1-1h7.66a1,1,0,0,0,1-1V46.78a1,1,0,0,0-1-1H127.17a1,1,0,0,0-1,1v1.58a1,1,0,0,0,1,1h7.37a1,1,0,0,1,1,1V63.19a1,1,0,0,1-1,1h-8.92a1,1,0,0,0-1,1v1.45a1,1,0,0,0,1,1h24.11a1,1,0,0,0,1-1V65.18a1,1,0,0,0-1-1Z"/></clipPath><clipPath id="clip-path-33"><path class="cls-1" d="M104.84,42.39a1,1,0,0,0-1,1v0c0,3.37-.15,9.14-2.83,14.43a19.27,19.27,0,0,1-7.68,8.1h0a.83.83,0,0,0-.14,1.21l.44.65,1,.73a1.6,1.6,0,0,0,1.66.06l.09-.06a22,22,0,0,0,5.06-4.5,24.54,24.54,0,0,0,3.94-6.86c.23-.6.31-.85.31-.85.17-.53.47-.53.66,0,0,0,.15.44.44,1.14a21.57,21.57,0,0,0,9.55,11h0a1.64,1.64,0,0,0,1.65-.19l.61-.5.59-1a.86.86,0,0,0-.38-1.28l-.1,0c-9.12-4.68-10.77-14.89-11.16-18.64.08-1.09.13-2.11.16-3,0-.52,0-.45,0-.45a1,1,0,0,0-1-1Z"/></clipPath><clipPath id="clip-path-35"><path class="cls-1" d="M295.74,21.24a.33.33,0,0,1,.33.47,37,37,0,0,1-3,6.45,31,31,0,0,1-2.44,3.19c-.29.33-.56.62-.8.87l-.3.3a1,1,0,0,0,.15,1.5l1.05.77a1.07,1.07,0,0,0,1.47-.19l.3-.32c.25-.29.54-.62.84-1a36.23,36.23,0,0,0,2.57-3.56,43.26,43.26,0,0,0,3.36-8,.73.73,0,0,1,.66-.46h1.38a.46.46,0,0,1,.48.49s-.53,8.13-.63,9.22c-.16,1.67-.53,2-2.51,2h-2.79A.93.93,0,0,0,295,34l.24,1.22a1.19,1.19,0,0,0,1.14.93h2.84c3.75,0,5.05-1,5.29-4.34.06-.72.18-2.71.34-5.62,0-.29,0-.29,0-.58.08-1.42.17-2.94.25-4.46,0-.53.05-1,.07-1.46s0-.46,0-.56a1,1,0,0,0-1-1.07h-9.35c-.55,0-.61-.22-.14-.5l6.59-3.81a1.93,1.93,0,0,0,.85-1.49V10.85a1,1,0,0,0-1-1H289.06a1,1,0,0,0-1,1v1.16a1,1,0,0,0,1.05,1H296L288.37,18a2,2,0,0,0-.84,1.54v.65a1,1,0,0,0,1,1h2.71c.28,0,.42.2.3.45a26.45,26.45,0,0,1-1.7,3.23c-.78,1.16-3.2,4.25-3.74,4.79a.75.75,0,0,0,.09,1.13,2.65,2.65,0,0,0,.5.4c.24.15.47.28.63.36l.15,0a1.09,1.09,0,0,0,.93-.27,23.25,23.25,0,0,0,1.85-2.29l.06-.07,1.43-1.9a29.26,29.26,0,0,0,2.88-5.43.78.78,0,0,1,.69-.45Z"/></clipPath><clipPath id="clip-path-37"><path class="cls-1" d="M284.36,19.23a.5.5,0,0,1,.51-.49h1.26a1,1,0,0,0,1-1V16.51a1,1,0,0,0-1-1h-1.26a.51.51,0,0,1-.51-.5V9.4a1,1,0,0,0-1-1h-1.26a1,1,0,0,0-1,1V15a.5.5,0,0,1-.51.5h-2.13a1,1,0,0,0-1,1v1.22a1,1,0,0,0,1,1h2.13a.5.5,0,0,1,.51.5v8.85a.73.73,0,0,1-.48.66s-.94.29-1.55.51l-.9.33a1.14,1.14,0,0,0-.7,1.3l.27,1.21a1,1,0,0,0,1.29.69l6.24-2.43a2.07,2.07,0,0,0,1.26-1.84v-.15a1.13,1.13,0,0,0-1.61-1.1h0a.31.31,0,0,1-.46-.31Z"/></clipPath><clipPath id="clip-path-39"><path class="cls-1" d="M233.46,30.18a1,1,0,0,1-1-1V16.34a1,1,0,0,1,1-1h7.66a1,1,0,0,0,1-1V12.78a1,1,0,0,0-1-1H220.17a1,1,0,0,0-1,1v1.58a1,1,0,0,0,1,1h7.37a1,1,0,0,1,1,1V29.19a1,1,0,0,1-1,1h-8.92a1,1,0,0,0-1,1v1.45a1,1,0,0,0,1,1h24.11a1,1,0,0,0,1-1V31.18a1,1,0,0,0-1-1Z"/></clipPath><clipPath id="clip-path-41"><path class="cls-1" d="M183.7,18.82a1,1,0,0,0-1-1H175a.5.5,0,0,1-.5-.51V13.6A.67.67,0,0,1,175,13l6.59-1.74c.8-.21,1-.84.35-1.41l-1.31-1.24a1,1,0,0,0-.85-.2l-7.64,2.14a1.4,1.4,0,0,0-1,1.28v9.52a65.76,65.76,0,0,1-.54,7.47c-.24,1.66-.14.82-.14.82-.19.51-.56.53-.83,0l-1.41-2.47a1,1,0,0,0-1.37-.4l-.6.33a1,1,0,0,0-.4,1.37l1.41,2.72a.91.91,0,0,0,1.31.36l.68-.44c.47-.29.66-.13.43.38l-.49,1.06a1.32,1.32,0,0,0,.37,1.52l1.15.9a.79.79,0,0,0,1.24-.27A20.7,20.7,0,0,0,173.51,31a31.52,31.52,0,0,0,.82-5.22c.13-1.56.16-4.13.16-4.13a.5.5,0,0,1,.5-.5h1.94a.5.5,0,0,1,.5.49V34.84a1,1,0,0,0,1,1h1.47a1,1,0,0,0,1-1V21.6a.49.49,0,0,1,.5-.49h1.29a1,1,0,0,0,1-1Zm-14.86,7a1,1,0,0,0,1-1v-1a1,1,0,0,0-1-1h-3.45a.5.5,0,0,1-.5-.5V21a.51.51,0,0,1,.5-.5h3.94a1,1,0,0,0,1-1v-.95a1,1,0,0,0-1-1H167.7a.31.31,0,0,1-.3-.47l.77-1.85a.78.78,0,0,0-.59-1.11l-1-.19c-.27-.06-.27-.1,0-.1h2.29a1,1,0,0,0,1-1v-.91a1,1,0,0,0-1-1h-3.74c-.33-1-.88-2.2-.88-2.2A1.26,1.26,0,0,0,162.87,8l-1.24.29a.85.85,0,0,0-.6,1.16s.26.63.53,1.44h-4.13a1,1,0,0,0-1,1v.91a1,1,0,0,0,1,1H160c.27,0,.27,0,0,.12l-1,.24a1,1,0,0,0-.7,1.19l.48,1.68a.36.36,0,0,1-.36.49H157a1,1,0,0,0-1,1v.95a1,1,0,0,0,1,1h4.2a.5.5,0,0,1,.5.5v1.31a.5.5,0,0,1-.51.5h-4a1,1,0,0,0-1,1v1a1,1,0,0,0,1,1h4a.5.5,0,0,1,.51.5v5.83c0,.33-.09.42-.42.42l-1.15,0a.67.67,0,0,0-.69.94l.33,1a1.39,1.39,0,0,0,1.31.91,7.33,7.33,0,0,0,2.69-.47c.9-.51,1.14-1.26,1.14-2.7V26.29a.5.5,0,0,1,.5-.5Zm-4-12a.33.33,0,0,1,.34.47l-1,2.78a.76.76,0,0,1-.66.47h-3.05l.47-.13a1,1,0,0,0,.68-1.22l-.58-1.89a.35.35,0,0,1,.36-.48Zm-5.64,13a1.4,1.4,0,0,0-1.46.61l-1.59,2.73a1.13,1.13,0,0,0,.31,1.45l.7.5a.86.86,0,0,0,1.29-.28l2.06-3.69a.72.72,0,0,0-.48-1.11Z"/></clipPath><clipPath id="clip-path-43"><path class="cls-1" d="M115.23,10.71a1,1,0,0,0-1,1V27.31a1,1,0,0,0,1,1h1.28a1,1,0,0,0,1-1V11.7a1,1,0,0,0-1-1Z"/></clipPath><clipPath id="clip-path-45"><path class="cls-1" d="M116.65,33a.83.83,0,0,0-.84,1l.21,1.44a1.2,1.2,0,0,0,1.15,1h1.67c3.42,0,4.56-1,4.56-4.09V9.29a1,1,0,0,0-1-1h-1.28a1,1,0,0,0-1,1V31.37c0,1.42-.25,1.65-1.94,1.65Z"/></clipPath><clipPath id="clip-path-47"><path class="cls-1" d="M98.57,31.72c0,3.38,1.23,4.56,4.59,4.56h4.94c3.6,0,4.76-.83,5-3.73,0-.32,0-.66.08-1s0-.76,0-.76a1.45,1.45,0,0,0-1-1.31L111,29.08a.67.67,0,0,0-.92.7s0-.06,0,.79c0,.16,0,.44-.06.8-.11,1.58-.29,1.74-2.16,1.74h-3.93c-1.86,0-2-.16-2-2.06v-9.3a.51.51,0,0,1,.51-.5h5a.47.47,0,0,1,.48.5s-.05,1.39-.09,1.87c-.11,1.48-.22,1.58-1.81,1.58h-1.68a1.29,1.29,0,0,0-1.28,1.59,1.81,1.81,0,0,0,1.71,1.43h1.88c3.1,0,4.15-1,4.33-4,0-.16,0-.74.05-1.64,0-.21,0-.33,0-.66,0-.51,0-1.06,0-1.6,0-.33,0-.58,0-.73a1.48,1.48,0,0,0-1.48-1.51H101c-.28,0-.35-.16-.15-.35,0,0,.15-.14.4-.4a36.83,36.83,0,0,0,3.36-4.16l.11-.15,2,1.82L109.16,17l.8.71.3.27a1.51,1.51,0,0,0,2.12-.09l.31-.33a1.47,1.47,0,0,0-.13-2.11l-.32-.27-.82-.71-2.52-2.15-2.4-2.05a1.46,1.46,0,0,0-.61-2.06l-.8-.44a1,1,0,0,0-1.37.39l-.41.72-.4.65c-.42.66-.86,1.33-1.28,2l-.39.56c-.42.6-.8,1.09-1.11,1.46s-.71.79-1.19,1.27l-.49.47c-.52.5-1.08,1-1.64,1.5-.33.3-.74.65-.74.65l-.22.21a1.26,1.26,0,0,0-.19,1.52l.39.6a1.56,1.56,0,0,0,2.13.27h0c.19-.14.35,0,.35.24Z"/></clipPath></defs><title>Artboard 43ldpi4</title><g id="中英横版"><path class="cls-2" d="M35.22,87.38l18.16-13a3.22,3.22,0,0,0-3.76-5.24l-18.15,13a3.23,3.23,0,0,0,3.75,5.25Z"/><path class="cls-2" d="M29.11,77.71l.36-.25,1-.7L34,74.23c3.63-2.64,7.27-5.33,10.66-7.93l2.06-1.58c6.62-5.13,11.13-9,13.07-11.4a31.24,31.24,0,0,0,2.51-3.63A30.16,30.16,0,1,0,22.4,61.21a29.74,29.74,0,0,0,4.92,2,3.23,3.23,0,0,0,1.91-6.17,23.28,23.28,0,0,1-3.87-1.58,23.73,23.73,0,1,1,31.36-9.07,23.48,23.48,0,0,1-2,2.86c-1.5,1.86-5.82,5.56-12,10.34l-2,1.56c-3.35,2.56-6.94,5.22-10.54,7.83l-3.47,2.51-1,.69-.34.24a3.22,3.22,0,1,0,3.71,5.27Z"/><path class="cls-3" d="M302.2,92.24H307v-.87h-3.73V88.44h3v-.86h-3V85.05h3.61V84.2H302.2Zm-5.65,0h1V85.05H300V84.2h-5.89v.85h2.44Zm-7.5.14c1.65,0,2.9-.88,2.9-3.47V84.2h-1V89c0,1.94-.84,2.54-1.92,2.54s-1.86-.6-1.86-2.54V84.2h-1v4.71C286.17,91.5,287.42,92.38,289.05,92.38Zm-8.5-.14h1V85.05H284V84.2h-5.88v.85h2.43Zm-5.65,0h1v-8h-1Zm-5.65,0h1V85.05h2.43V84.2h-5.88v.85h2.43Zm-6.51.14c1.68,0,2.73-1,2.73-2.28A2.23,2.23,0,0,0,263.82,88l-1.15-.49c-.63-.27-1.33-.56-1.33-1.34s.59-1.19,1.5-1.19a2.59,2.59,0,0,1,1.83.76l.54-.65a3.32,3.32,0,0,0-2.37-1,2.28,2.28,0,0,0-2.53,2.14,2.26,2.26,0,0,0,1.63,2.06l1.16.51c.76.34,1.34.6,1.34,1.43s-.63,1.31-1.69,1.31a3.12,3.12,0,0,1-2.22-1l-.6.69A3.8,3.8,0,0,0,262.74,92.38Zm-10.91-.14h1V88c0-.84-.08-1.7-.12-2.51h0l.87,1.66,2.92,5.08h1v-8h-1v4.18c0,.83.07,1.73.13,2.54h-.06l-.85-1.66-2.93-5.06h-1Zm-4,0h1v-8h-1Zm-7.2,0h1v-8h-1Zm-3,0h1.08l-2.73-8h-1.13l-2.73,8h1l.78-2.46h2.94ZM234.24,89l.4-1.23c.28-.91.54-1.78.8-2.72h0c.26.93.51,1.81.81,2.72l.38,1.23ZM225,92.38c1.68,0,2.73-1,2.73-2.28A2.23,2.23,0,0,0,226,88l-1.15-.49c-.63-.27-1.33-.56-1.33-1.34s.59-1.19,1.5-1.19a2.59,2.59,0,0,1,1.83.76l.54-.65a3.32,3.32,0,0,0-2.37-1,2.28,2.28,0,0,0-2.53,2.14,2.26,2.26,0,0,0,1.63,2.06l1.16.51c.76.34,1.34.6,1.34,1.43S226,91.49,225,91.49a3.12,3.12,0,0,1-2.22-1l-.6.69A3.8,3.8,0,0,0,225,92.38Zm-9.44-.14h4.75v-.87h-3.73V88.44h3v-.86h-3V85.05h3.61V84.2h-4.63Zm-2.16,0-2.06-3.52a2.18,2.18,0,0,0,1.82-2.26c0-1.68-1.17-2.26-2.8-2.26h-2.52v8h1V88.83h1.44l1.95,3.41ZM208.81,85h1.34c1.26,0,1.95.37,1.95,1.44S211.41,88,210.15,88h-1.34ZM202,92.38c1.65,0,2.89-.88,2.89-3.47V84.2h-1V89c0,1.94-.84,2.54-1.92,2.54s-1.86-.6-1.86-2.54V84.2h-1v4.71C199.09,91.5,200.34,92.38,202,92.38Zm-8.5-.14h1V85.05h2.43V84.2H191v.85h2.43Zm-10.35,0h1V88c0-.84-.07-1.7-.12-2.51h0l.86,1.66,2.93,5.08h1v-8h-1v4.18c0,.83.08,1.73.14,2.54H188l-.85-1.66-2.93-5.06h-1Zm-7.21,0h4.76v-.87h-3.74V88.44h3v-.86h-3V85.05h3.62V84.2h-4.64Zm-5.58,0h1.17l2.55-8h-1l-1.29,4.35c-.29,1-.48,1.71-.78,2.66h0c-.31-.95-.5-1.71-.78-2.66l-1.3-4.35h-1.07Zm-13.38,0h1V88c0-.84-.08-1.7-.12-2.51h0l.86,1.66,2.93,5.08h1v-8h-1v4.18c0,.83.07,1.73.13,2.54h-.06l-.85-1.66L158,84.2H157ZM151,91.49c-1.45,0-2.39-1.29-2.39-3.3s.94-3.26,2.39-3.26,2.38,1.24,2.38,3.26S152.46,91.49,151,91.49Zm0,.89c2,0,3.42-1.61,3.42-4.19S153,84,151,84s-3.43,1.57-3.43,4.15S149,92.38,151,92.38Zm-6.95-.14h1v-8h-1Zm-5.65,0h1V85.05h2.43V84.2H136v.85h2.43Zm-4,0h1.08l-2.73-8h-1.13l-2.73,8h1l.78-2.46h2.94ZM131,89l.4-1.23c.28-.91.54-1.78.8-2.72h0c.26.93.52,1.81.81,2.72l.38,1.23Zm-6.42,3.27h1.18l2.55-8h-1L126,88.55c-.29,1-.49,1.71-.78,2.66h0c-.3-.95-.49-1.71-.77-2.66l-1.31-4.35H122Zm-7.28-.75c-1.45,0-2.39-1.29-2.39-3.3s.94-3.26,2.39-3.26,2.39,1.24,2.39,3.26S118.73,91.49,117.3,91.49Zm0,.89c2,0,3.43-1.61,3.43-4.19S119.32,84,117.3,84s-3.43,1.57-3.43,4.15S115.28,92.38,117.3,92.38Zm-11.64-.14h1V88c0-.84-.08-1.7-.12-2.51h0l.87,1.66,2.92,5.08h1v-8h-1v4.18c0,.83.08,1.73.13,2.54h-.05l-.86-1.66-2.92-5.06h-1Zm-4,0h1v-8h-1Zm-5.07.14c1.67,0,2.73-1,2.73-2.28A2.24,2.24,0,0,0,97.68,88l-1.15-.49c-.62-.27-1.32-.56-1.32-1.34s.59-1.19,1.5-1.19a2.63,2.63,0,0,1,1.83.76l.53-.65a3.29,3.29,0,0,0-2.36-1,2.28,2.28,0,0,0-2.53,2.14,2.24,2.24,0,0,0,1.63,2.06l1.16.51c.76.34,1.34.6,1.34,1.43s-.64,1.31-1.69,1.31a3.12,3.12,0,0,1-2.22-1l-.61.69A3.83,3.83,0,0,0,96.61,92.38Z"/><path class="cls-3" d="M302,65.89c-.4,0-.46-.11-.46-.92V59.59a.5.5,0,0,1,.5-.5h3a1,1,0,0,0,1-1V57a1,1,0,0,0-1-1H290.72a1,1,0,0,0-1,1v1.05a1,1,0,0,0,1,1h2.44c-.3,3.13-1.12,5.3-4.36,6.73a6.2,6.2,0,0,1-.64.26.72.72,0,0,0-.37,1.15l.76,1.11a1.33,1.33,0,0,0,1.5.47l.16-.07c4.65-2,5.82-5.16,6.22-9.65h1.4a.5.5,0,0,1,.5.5v7.15a2,2,0,0,0,2,2h3.74a2,2,0,0,0,2-2V63.3a.51.51,0,0,0-.51-.51H304.2a.5.5,0,0,0-.5.5v1.6a1,1,0,0,1-1,1Z"/><g class="cls-4"><rect class="cls-2" x="-287.38" y="-165.21" width="833" height="445"/><g class="cls-5"><rect class="cls-2" x="282.63" y="51.05" width="28.44" height="22.84"/></g></g><path class="cls-3" d="M288.62,44.47a1,1,0,0,0-1-1h-6.1a1,1,0,0,0-1,1V68.07a1,1,0,0,0,1,1h1a1,1,0,0,0,1-1V47a.5.5,0,0,1,.51-.49h1.28a.51.51,0,0,1,.51.5V59.79h-.74a.5.5,0,0,0-.5.5v1.49a.5.5,0,0,0,.49.51h2.55a1,1,0,0,0,1-1V44.47Z"/><g class="cls-6"><rect class="cls-2" x="-287.38" y="-165.21" width="833" height="445"/><g class="cls-5"><rect class="cls-2" x="275.54" y="38.48" width="18.09" height="35.6"/></g></g><rect class="cls-2" x="293.62" y="50.79" width="8" height="3" rx="1"/><g class="cls-7"><rect class="cls-2" x="-287.38" y="-165.21" width="833" height="445"/><g class="cls-5"><rect class="cls-2" x="288.62" y="45.79" width="18" height="13"/></g></g><path class="cls-3" d="M289.62,46.3a1,1,0,0,1,1-1h4.52a.5.5,0,0,0,.49-.51v-1a1,1,0,0,1,1-1h1a1.59,1.59,0,0,1,1.38.93l.44,1.11a.8.8,0,0,0,.67.46h4.52a1,1,0,0,1,1,1v3.48a1,1,0,0,1-1,1h-1a1,1,0,0,1-1-1v-1a.5.5,0,0,0-.51-.5h-9a.51.51,0,0,0-.51.5v1a1,1,0,0,1-1,1h-1a1,1,0,0,1-1-1Z"/><g class="cls-8"><rect class="cls-2" x="-287.38" y="-165.21" width="833" height="445"/><g class="cls-5"><rect class="cls-2" x="284.62" y="37.79" width="26" height="18"/></g></g><path class="cls-3" d="M269.19,65.32a.5.5,0,0,1-.5-.51v-1.6a.5.5,0,0,1,.5-.5h3.55a1,1,0,0,0,1-1v-1a1,1,0,0,0-1-1h-3.55a.49.49,0,0,1-.5-.49V57.63a.49.49,0,0,1,.49-.49h4.27a1,1,0,0,0,1-1v-1a1,1,0,0,0-1-1H260.59a1,1,0,0,0-1,1v1a1,1,0,0,0,1,1h4.18a.49.49,0,0,1,.5.49V59.2a.48.48,0,0,1-.49.49h-3.5a1,1,0,0,0-1,1v1a1,1,0,0,0,1,1h3.5a.49.49,0,0,1,.49.5v1.6a.5.5,0,0,1-.5.51h-5.29a1,1,0,0,0-1,1v1.11a1,1,0,0,0,1,1h14.59a1,1,0,0,0,1-1V66.31a1,1,0,0,0-1-1Z"/><g class="cls-9"><rect class="cls-2" x="-287.38" y="-165.21" width="833" height="445"/><g class="cls-5"><rect class="cls-2" x="253.47" y="49.1" width="26.59" height="24.32"/></g></g><path class="cls-3" d="M258.73,59.51a1.5,1.5,0,0,0,0-1.63L256,54.05c-.17-.23-.09-.41.19-.41h1.5a1,1,0,0,0,1-1V51.46a1,1,0,0,0-1-1h-1.5a.49.49,0,0,1-.49-.49V47.3a1,1,0,0,1,1-1h.46a1,1,0,0,0,1-1v-1a1,1,0,0,0-1-1h-6.48a1,1,0,0,0-1,1v1a1,1,0,0,0,1,1h.87a1,1,0,0,1,1,1V50a.49.49,0,0,1-.5.49h-2.15a1,1,0,0,0-1,1v1.17a1,1,0,0,0,1,1h1.6c.27,0,.4.19.26.44L247.59,62c-.26.49,0,.88.54.88h2a.86.86,0,0,0,.72-.44l1.39-2.74c.12-.25.22-.22.22.06v8.41a1,1,0,0,0,1,1h1.16a1,1,0,0,0,1-1V58.65c0-.28.1-.31.22-.07l1,2.06a.54.54,0,0,0,1,.07Z"/><g class="cls-10"><rect class="cls-2" x="-287.38" y="-165.21" width="833" height="445"/><g class="cls-5"><rect class="cls-2" x="242.48" y="38.29" width="21.48" height="35.9"/></g></g><path class="cls-3" d="M263.81,49a.5.5,0,0,0,.51.51h5.47a.5.5,0,0,0,.5-.51V46.54a.5.5,0,0,0-.5-.51h-5.47a.51.51,0,0,0-.51.51Zm-3.19,2.37a1,1,0,0,0,1,1h11a1,1,0,0,0,1-1V44.16a1,1,0,0,0-1-1h-11a1,1,0,0,0-1,1Z"/><g class="cls-11"><rect class="cls-2" x="-287.38" y="-165.21" width="833" height="445"/><g class="cls-5"><rect class="cls-2" x="255.62" y="38.16" width="23" height="19.18"/></g></g><path class="cls-3" d="M233.47,63.74a1,1,0,0,1-1-1V49.9a1,1,0,0,1,1-1h7.65a1,1,0,0,0,1-1V46.33a1,1,0,0,0-1-1H220.19a1,1,0,0,0-1,1v1.58a1,1,0,0,0,1,1h7.38a1,1,0,0,1,1,1V62.74a1,1,0,0,1-1,1h-8.91a1,1,0,0,0-1,1v1.45a1,1,0,0,0,1,1h24.11a1,1,0,0,0,1-1V64.74a1,1,0,0,0-1-1Z"/><g class="cls-12"><rect class="cls-2" x="-287.38" y="-165.21" width="833" height="445"/><g class="cls-5"><rect class="cls-2" x="212.64" y="40.34" width="36.09" height="31.84"/></g></g><path class="cls-3" d="M208.72,55.53c2.26,0,3.73-.4,3.72-3.38v-1a1,1,0,0,0-1-1h-.91a1,1,0,0,0-1,.91h0c0,1.48,0,1.48-1.15,1.48h-3.1c-1.09,0-1.26-.12-1.26-1.15v-1.2a.81.81,0,0,1,.46-.69l5.05-2.17A.91.91,0,0,0,210,46l-.31-.61a1.06,1.06,0,0,0-1.37-.48l-3.83,1.78a.3.3,0,0,1-.46-.3V43.79a1,1,0,0,0-1-1h-1.39a1,1,0,0,0-1,1v7.65c0,3.12.84,4.1,4.16,4.1Z"/><g class="cls-13"><rect class="cls-2" x="-287.38" y="-165.21" width="833" height="445"/><g class="cls-5"><rect class="cls-2" x="195.62" y="37.79" width="21.82" height="22.74"/></g></g><path class="cls-3" d="M209.55,69.53c2.26,0,3.73-.4,3.72-3.38v-1a1,1,0,0,0-1-1h-.91a1,1,0,0,0-1,.91h0c0,1.48,0,1.48-1.15,1.48h-3.93c-1.09,0-1.26-.12-1.26-1.15V64.29a.77.77,0,0,1,.46-.68l5.65-2.21a.88.88,0,0,0,.48-1.26l-.55-1.08a.57.57,0,0,0-.69-.26l-4.9,1.94c-.25.1-.45,0-.45-.33V57.79a1,1,0,0,0-1-1h-1.39a1,1,0,0,0-1,1v7.65c0,3.12.84,4.1,4.16,4.1Z"/><g class="cls-14"><rect class="cls-2" x="-287.38" y="-165.21" width="833" height="445"/><g class="cls-5"><rect class="cls-2" x="195.62" y="51.79" width="22.65" height="22.74"/></g></g><path class="cls-3" d="M195.57,45a1.09,1.09,0,0,0-.68,1.29l.26.93a.36.36,0,0,1-.36.48h-3.17a.67.67,0,0,1-.67-1l.85-2.48a.67.67,0,0,0-.67-1h-1.51a1.4,1.4,0,0,0-1.27,1l-1.45,5a.71.71,0,0,0,.72,1H196a.74.74,0,0,1,.66.47v0a.92.92,0,0,0,1.23.58l1.24-.5a1,1,0,0,0,.57-1.3L198,45.22a1.06,1.06,0,0,0-1.32-.61Z"/><g class="cls-15"><rect class="cls-2" x="-287.38" y="-165.21" width="833" height="445"/><g class="cls-5"><rect class="cls-2" x="181.86" y="38.29" width="22.86" height="18.07"/></g></g><path class="cls-3" d="M190.93,60.69a.5.5,0,0,0,.49.49h3.29a.5.5,0,0,0,.49-.49V60a.5.5,0,0,0-.49-.49h-3.29a.5.5,0,0,0-.49.49Zm0-4.19a.5.5,0,0,0,.49.49h3.29a.49.49,0,0,0,.49-.49V56a.51.51,0,0,0-.49-.5h-3.29a.5.5,0,0,0-.49.5Zm7.16-2.83a1,1,0,0,0-1-1h-8.3a1,1,0,0,0-1,1V69.06a.51.51,0,0,0,.49.51h2.17a.5.5,0,0,0,.5-.5V64.21a.5.5,0,0,1,.5-.5h3.2a.49.49,0,0,1,.49.5V66.3a.49.49,0,0,1-.5.49h-1.06a.5.5,0,0,0-.5.51v1.76a.49.49,0,0,0,.49.5s.27,0,.93,0c1.11,0,2.65,0,2.65,0a1,1,0,0,0,1-1V66.29l0-11.85Z"/><g class="cls-16"><rect class="cls-2" x="-287.38" y="-165.21" width="833" height="445"/><g class="cls-5"><rect class="cls-2" x="182.77" y="47.66" width="20.35" height="26.92"/></g></g><path class="cls-3" d="M172.54,51.82a.5.5,0,0,0,.5.5h3.36a.5.5,0,0,0,.5-.5V48a.5.5,0,0,0-.5-.5H173a.5.5,0,0,0-.5.5Zm-3.16,2.51a1,1,0,0,0,1,1h8.89a1,1,0,0,0,1-1V45.46a1,1,0,0,0-1-1h-8.89a1,1,0,0,0-1,1Z"/><g class="cls-17"><rect class="cls-2" x="-287.38" y="-165.21" width="833" height="445"/><g class="cls-5"><rect class="cls-2" x="164.38" y="39.45" width="20.91" height="20.88"/></g></g><path class="cls-3" d="M162.46,61.33h11.86V59.72H162.46Zm0,4.16h11.86V63.8H162.46Zm-3.35,2.68a1,1,0,0,0,1,1H162a.49.49,0,0,0,.49-.49v-.45h11.86v.41a.5.5,0,0,0,.5.5h2a1,1,0,0,0,1-1V58.06a1,1,0,0,0-1-1h-16.7a1,1,0,0,0-1,1Z"/><g class="cls-18"><rect class="cls-2" x="-287.38" y="-165.21" width="833" height="445"/><g class="cls-5"><rect class="cls-2" x="154.11" y="52.05" width="28.71" height="22.11"/></g></g><path class="cls-3" d="M157.33,48.29h-.54a1,1,0,0,1-1-1V43.8a1,1,0,0,1,1-1h.85a1,1,0,0,1,1,1V44a.51.51,0,0,0,.51.49h8a1,1,0,0,1,1,1v.64a1,1,0,0,1-1,1h-2.23a.51.51,0,0,0-.51.51v.85a.5.5,0,0,0,.5.51h2.91a1,1,0,0,1,1,1v.68a1,1,0,0,1-1,1H164c.94.49,2.89,1.59,4.06,2.28h0a.69.69,0,0,1,0,1.14l-.58.53a3.38,3.38,0,0,1-.35.31,1.07,1.07,0,0,1-1.35.16h0c-.86-.7-2.07-1.57-3.09-2.27a12.09,12.09,0,0,1-4.2,3.58l-.18.1c-.5.25-1.05.25-1.23,0h0a13,13,0,0,0-1.07-1.2h0c-.41-.37-.37-.81.11-1h0a8.24,8.24,0,0,0,4.25-3.62h-3.77a1,1,0,0,1-1-1V50a1,1,0,0,1,1-1h3.94a.51.51,0,0,0,.51-.51l0-.85a.5.5,0,0,0-.5-.51l-1.47,0a.5.5,0,0,0-.51.49v.16a.5.5,0,0,1-.5.5Z"/><g class="cls-19"><rect class="cls-2" x="-287.38" y="-165.21" width="833" height="445"/><g class="cls-5"><rect class="cls-2" x="150.62" y="37.79" width="23.11" height="24.93"/></g></g><path class="cls-3" d="M140.46,64.18a1,1,0,0,1-1-1V50.34a1,1,0,0,1,1-1h7.66a1,1,0,0,0,1-1V46.78a1,1,0,0,0-1-1H127.17a1,1,0,0,0-1,1v1.58a1,1,0,0,0,1,1h7.37a1,1,0,0,1,1,1V63.19a1,1,0,0,1-1,1h-8.92a1,1,0,0,0-1,1v1.45a1,1,0,0,0,1,1h24.11a1,1,0,0,0,1-1V65.18a1,1,0,0,0-1-1Z"/><g class="cls-20"><rect class="cls-2" x="-287.38" y="-165.21" width="833" height="445"/><g class="cls-5"><rect class="cls-2" x="119.62" y="40.79" width="36.09" height="31.84"/></g></g><path class="cls-3" d="M104.84,42.39a1,1,0,0,0-1,1v0c0,3.37-.15,9.14-2.83,14.43a19.27,19.27,0,0,1-7.68,8.1h0a.83.83,0,0,0-.14,1.21l.44.65,1,.73a1.6,1.6,0,0,0,1.66.06l.09-.06a22,22,0,0,0,5.06-4.5,24.54,24.54,0,0,0,3.94-6.86c.23-.6.31-.85.31-.85.17-.53.47-.53.66,0,0,0,.15.44.44,1.14a21.57,21.57,0,0,0,9.55,11h0a1.64,1.64,0,0,0,1.65-.19l.61-.5.59-1a.86.86,0,0,0-.38-1.28l-.1,0c-9.12-4.68-10.77-14.89-11.16-18.64.08-1.09.13-2.11.16-3,0-.52,0-.45,0-.45a1,1,0,0,0-1-1Z"/><g class="cls-21"><rect class="cls-2" x="-287.38" y="-165.21" width="833" height="445"/><g class="cls-5"><rect class="cls-2" x="87.99" y="37.39" width="36.37" height="36.4"/></g></g><path class="cls-3" d="M295.74,21.24a.33.33,0,0,1,.33.47,37,37,0,0,1-3,6.45,31,31,0,0,1-2.44,3.19c-.29.33-.56.62-.8.87l-.3.3a1,1,0,0,0,.15,1.5l1.05.77a1.07,1.07,0,0,0,1.47-.19l.3-.32c.25-.29.54-.62.84-1a36.23,36.23,0,0,0,2.57-3.56,43.26,43.26,0,0,0,3.36-8,.73.73,0,0,1,.66-.46h1.38a.46.46,0,0,1,.48.49s-.53,8.13-.63,9.22c-.16,1.67-.53,2-2.51,2h-2.79A.93.93,0,0,0,295,34l.24,1.22a1.19,1.19,0,0,0,1.14.93h2.84c3.75,0,5.05-1,5.29-4.34.06-.72.18-2.71.34-5.62,0-.29,0-.29,0-.58.08-1.42.17-2.94.25-4.46,0-.53.05-1,.07-1.46s0-.46,0-.56a1,1,0,0,0-1-1.07h-9.35c-.55,0-.61-.22-.14-.5l6.59-3.81a1.93,1.93,0,0,0,.85-1.49V10.85a1,1,0,0,0-1-1H289.06a1,1,0,0,0-1,1v1.16a1,1,0,0,0,1.05,1H296L288.37,18a2,2,0,0,0-.84,1.54v.65a1,1,0,0,0,1,1h2.71c.28,0,.42.2.3.45a26.45,26.45,0,0,1-1.7,3.23c-.78,1.16-3.2,4.25-3.74,4.79a.75.75,0,0,0,.09,1.13,2.65,2.65,0,0,0,.5.4c.24.15.47.28.63.36l.15,0a1.09,1.09,0,0,0,.93-.27,23.25,23.25,0,0,0,1.85-2.29l.06-.07,1.43-1.9a29.26,29.26,0,0,0,2.88-5.43.78.78,0,0,1,.69-.45Z"/><g class="cls-22"><rect class="cls-2" x="-287.38" y="-165.21" width="833" height="445"/><g class="cls-5"><rect class="cls-2" x="280.92" y="4.86" width="29.26" height="36.33"/></g></g><path class="cls-3" d="M284.36,19.23a.5.5,0,0,1,.51-.49h1.26a1,1,0,0,0,1-1V16.51a1,1,0,0,0-1-1h-1.26a.51.51,0,0,1-.51-.5V9.4a1,1,0,0,0-1-1h-1.26a1,1,0,0,0-1,1V15a.5.5,0,0,1-.51.5h-2.13a1,1,0,0,0-1,1v1.22a1,1,0,0,0,1,1h2.13a.5.5,0,0,1,.51.5v8.85a.73.73,0,0,1-.48.66s-.94.29-1.55.51l-.9.33a1.14,1.14,0,0,0-.7,1.3l.27,1.21a1,1,0,0,0,1.29.69l6.24-2.43a2.07,2.07,0,0,0,1.26-1.84v-.15a1.13,1.13,0,0,0-1.61-1.1h0a.31.31,0,0,1-.46-.31Z"/><g class="cls-23"><rect class="cls-2" x="-287.38" y="-165.21" width="833" height="445"/><g class="cls-5"><rect class="cls-2" x="272.36" y="3.36" width="19.76" height="34.5"/></g></g><path class="cls-3" d="M233.46,30.18a1,1,0,0,1-1-1V16.34a1,1,0,0,1,1-1h7.66a1,1,0,0,0,1-1V12.78a1,1,0,0,0-1-1H220.17a1,1,0,0,0-1,1v1.58a1,1,0,0,0,1,1h7.37a1,1,0,0,1,1,1V29.19a1,1,0,0,1-1,1h-8.92a1,1,0,0,0-1,1v1.45a1,1,0,0,0,1,1h24.11a1,1,0,0,0,1-1V31.18a1,1,0,0,0-1-1Z"/><g class="cls-24"><rect class="cls-2" x="-287.38" y="-165.21" width="833" height="445"/><g class="cls-5"><rect class="cls-2" x="212.62" y="6.79" width="36.08" height="31.84"/></g></g><path class="cls-3" d="M183.7,18.82a1,1,0,0,0-1-1H175a.5.5,0,0,1-.5-.51V13.6A.67.67,0,0,1,175,13l6.59-1.74c.8-.21,1-.84.35-1.41l-1.31-1.24a1,1,0,0,0-.85-.2l-7.64,2.14a1.4,1.4,0,0,0-1,1.28v9.52a65.76,65.76,0,0,1-.54,7.47c-.24,1.66-.14.82-.14.82-.19.51-.56.53-.83,0l-1.41-2.47a1,1,0,0,0-1.37-.4l-.6.33a1,1,0,0,0-.4,1.37l1.41,2.72a.91.91,0,0,0,1.31.36l.68-.44c.47-.29.66-.13.43.38l-.49,1.06a1.32,1.32,0,0,0,.37,1.52l1.15.9a.79.79,0,0,0,1.24-.27A20.7,20.7,0,0,0,173.51,31a31.52,31.52,0,0,0,.82-5.22c.13-1.56.16-4.13.16-4.13a.5.5,0,0,1,.5-.5h1.94a.5.5,0,0,1,.5.49V34.84a1,1,0,0,0,1,1h1.47a1,1,0,0,0,1-1V21.6a.49.49,0,0,1,.5-.49h1.29a1,1,0,0,0,1-1Zm-14.86,7a1,1,0,0,0,1-1v-1a1,1,0,0,0-1-1h-3.45a.5.5,0,0,1-.5-.5V21a.51.51,0,0,1,.5-.5h3.94a1,1,0,0,0,1-1v-.95a1,1,0,0,0-1-1H167.7a.31.31,0,0,1-.3-.47l.77-1.85a.78.78,0,0,0-.59-1.11l-1-.19c-.27-.06-.27-.1,0-.1h2.29a1,1,0,0,0,1-1v-.91a1,1,0,0,0-1-1h-3.74c-.33-1-.88-2.2-.88-2.2A1.26,1.26,0,0,0,162.87,8l-1.24.29a.85.85,0,0,0-.6,1.16s.26.63.53,1.44h-4.13a1,1,0,0,0-1,1v.91a1,1,0,0,0,1,1H160c.27,0,.27,0,0,.12l-1,.24a1,1,0,0,0-.7,1.19l.48,1.68a.36.36,0,0,1-.36.49H157a1,1,0,0,0-1,1v.95a1,1,0,0,0,1,1h4.2a.5.5,0,0,1,.5.5v1.31a.5.5,0,0,1-.51.5h-4a1,1,0,0,0-1,1v1a1,1,0,0,0,1,1h4a.5.5,0,0,1,.51.5v5.83c0,.33-.09.42-.42.42l-1.15,0a.67.67,0,0,0-.69.94l.33,1a1.39,1.39,0,0,0,1.31.91,7.33,7.33,0,0,0,2.69-.47c.9-.51,1.14-1.26,1.14-2.7V26.29a.5.5,0,0,1,.5-.5Zm-4-12a.33.33,0,0,1,.34.47l-1,2.78a.76.76,0,0,1-.66.47h-3.05l.47-.13a1,1,0,0,0,.68-1.22l-.58-1.89a.35.35,0,0,1,.36-.48Zm-5.64,13a1.4,1.4,0,0,0-1.46.61l-1.59,2.73a1.13,1.13,0,0,0,.31,1.45l.7.5a.86.86,0,0,0,1.29-.28l2.06-3.69a.72.72,0,0,0-.48-1.11Z"/><g class="cls-25"><rect class="cls-2" x="-287.38" y="-165.21" width="833" height="445"/><g class="cls-5"><rect class="cls-2" x="150.98" y="2.99" width="37.72" height="37.85"/></g></g><path class="cls-3" d="M115.23,10.71a1,1,0,0,0-1,1V27.31a1,1,0,0,0,1,1h1.28a1,1,0,0,0,1-1V11.7a1,1,0,0,0-1-1Z"/><g class="cls-26"><rect class="cls-2" x="-287.38" y="-165.21" width="833" height="445"/><g class="cls-5"><rect class="cls-2" x="109.23" y="5.71" width="13.28" height="27.59"/></g></g><path class="cls-3" d="M116.65,33a.83.83,0,0,0-.84,1l.21,1.44a1.2,1.2,0,0,0,1.15,1h1.67c3.42,0,4.56-1,4.56-4.09V9.29a1,1,0,0,0-1-1h-1.28a1,1,0,0,0-1,1V31.37c0,1.42-.25,1.65-1.94,1.65Z"/><g class="cls-27"><rect class="cls-2" x="-287.38" y="-165.21" width="833" height="445"/><g class="cls-5"><rect class="cls-2" x="110.8" y="3.29" width="17.61" height="38.16"/></g></g><path class="cls-3" d="M98.57,31.72c0,3.38,1.23,4.56,4.59,4.56h4.94c3.6,0,4.76-.83,5-3.73,0-.32,0-.66.08-1s0-.76,0-.76a1.45,1.45,0,0,0-1-1.31L111,29.08a.67.67,0,0,0-.92.7s0-.06,0,.79c0,.16,0,.44-.06.8-.11,1.58-.29,1.74-2.16,1.74h-3.93c-1.86,0-2-.16-2-2.06v-9.3a.51.51,0,0,1,.51-.5h5a.47.47,0,0,1,.48.5s-.05,1.39-.09,1.87c-.11,1.48-.22,1.58-1.81,1.58h-1.68a1.29,1.29,0,0,0-1.28,1.59,1.81,1.81,0,0,0,1.71,1.43h1.88c3.1,0,4.15-1,4.33-4,0-.16,0-.74.05-1.64,0-.21,0-.33,0-.66,0-.51,0-1.06,0-1.6,0-.33,0-.58,0-.73a1.48,1.48,0,0,0-1.48-1.51H101c-.28,0-.35-.16-.15-.35,0,0,.15-.14.4-.4a36.83,36.83,0,0,0,3.36-4.16l.11-.15,2,1.82L109.16,17l.8.71.3.27a1.51,1.51,0,0,0,2.12-.09l.31-.33a1.47,1.47,0,0,0-.13-2.11l-.32-.27-.82-.71-2.52-2.15-2.4-2.05a1.46,1.46,0,0,0-.61-2.06l-.8-.44a1,1,0,0,0-1.37.39l-.41.72-.4.65c-.42.66-.86,1.33-1.28,2l-.39.56c-.42.6-.8,1.09-1.11,1.46s-.71.79-1.19,1.27l-.49.47c-.52.5-1.08,1-1.64,1.5-.33.3-.74.65-.74.65l-.22.21a1.26,1.26,0,0,0-.19,1.52l.39.6a1.56,1.56,0,0,0,2.13.27h0c.19-.14.35,0,.35.24Z"/><g class="cls-28"><rect class="cls-2" x="-287.38" y="-165.21" width="833" height="445"/><g class="cls-5"><rect class="cls-2" x="90.49" y="2.65" width="27.74" height="38.63"/></g></g></g></svg>