<svg xmlns="http://www.w3.org/2000/svg" xmlns:xlink="http://www.w3.org/1999/xlink" viewBox="0 0 304.99 89.73"><defs><style>.cls-1,.cls-2{fill:none;}.cls-1{clip-rule:evenodd;}.cls-3{fill:#ef8839;}.cls-4{fill:#3a3b3c;fill-rule:evenodd;}.cls-5{clip-path:url(#clip-path);}.cls-6{clip-path:url(#clip-path-2);}.cls-7{fill:#3a3b3d;}.cls-8{clip-path:url(#clip-path-3);}.cls-9{clip-path:url(#clip-path-5);}.cls-10{clip-path:url(#clip-path-7);}.cls-11{clip-path:url(#clip-path-9);}.cls-12{clip-path:url(#clip-path-11);}.cls-13{clip-path:url(#clip-path-13);}.cls-14{clip-path:url(#clip-path-15);}.cls-15{clip-path:url(#clip-path-17);}.cls-16{clip-path:url(#clip-path-19);}.cls-17{clip-path:url(#clip-path-21);}.cls-18{clip-path:url(#clip-path-23);}.cls-19{clip-path:url(#clip-path-25);}.cls-20{clip-path:url(#clip-path-27);}.cls-21{clip-path:url(#clip-path-29);}.cls-22{clip-path:url(#clip-path-31);}.cls-23{clip-path:url(#clip-path-33);}.cls-24{clip-path:url(#clip-path-35);}.cls-25{clip-path:url(#clip-path-37);}.cls-26{clip-path:url(#clip-path-39);}.cls-27{clip-path:url(#clip-path-41);}.cls-28{clip-path:url(#clip-path-43);}.cls-29{clip-path:url(#clip-path-45);}.cls-30{clip-path:url(#clip-path-47);}</style><clipPath id="clip-path" transform="translate(-293.47 -167.86)"><path class="cls-1" d="M589.41,231.1c-.4,0-.46-.11-.46-.92V224.8a.5.5,0,0,1,.5-.5h3a1,1,0,0,0,1-1v-1.05a1,1,0,0,0-1-1H578.09a1,1,0,0,0-1,1v1.05a1,1,0,0,0,1,1h2.45c-.3,3.13-1.13,5.3-4.36,6.74a4.39,4.39,0,0,1-.64.25.72.72,0,0,0-.37,1.16l.75,1.1a1.34,1.34,0,0,0,1.5.47l.17-.07c4.65-2,5.82-5.16,6.22-9.65h1.4a.49.49,0,0,1,.49.5V232a2,2,0,0,0,2,2h3.73a2,2,0,0,0,2-2v-3.44a.5.5,0,0,0-.5-.51h-1.37a.5.5,0,0,0-.51.5v1.6a1,1,0,0,1-1,1Z"/></clipPath><clipPath id="clip-path-2" transform="translate(-293.47 -167.86)"><rect class="cls-2" width="833" height="445"/></clipPath><clipPath id="clip-path-3" transform="translate(-293.47 -167.86)"><path class="cls-1" d="M576,209.68a1,1,0,0,0-1-1H568.9a1,1,0,0,0-1,1v23.59a1,1,0,0,0,1,1h1a1,1,0,0,0,1-1V212.22a.5.5,0,0,1,.51-.49h1.27a.51.51,0,0,1,.51.51V225h-.73a.5.5,0,0,0-.5.51V227a.5.5,0,0,0,.49.51H575a1,1,0,0,0,1-1V209.68Z"/></clipPath><clipPath id="clip-path-5" transform="translate(-293.47 -167.86)"><rect class="cls-2" x="581" y="216" width="8" height="3" rx="1"/></clipPath><clipPath id="clip-path-7" transform="translate(-293.47 -167.86)"><path class="cls-1" d="M577,211.51a1,1,0,0,1,1-1h4.52A.5.5,0,0,0,583,210v-1a1,1,0,0,1,1-1h1a1.58,1.58,0,0,1,1.37.93l.45,1.11a.8.8,0,0,0,.67.46H592a1,1,0,0,1,1,1V215a1,1,0,0,1-1,1h-1a1,1,0,0,1-1-1v-1a.51.51,0,0,0-.51-.51h-9a.51.51,0,0,0-.51.51v1a1,1,0,0,1-1,1h-1a1,1,0,0,1-1-1Z"/></clipPath><clipPath id="clip-path-9" transform="translate(-293.47 -167.86)"><path class="cls-1" d="M556.57,230.53a.5.5,0,0,1-.5-.51v-1.6a.49.49,0,0,1,.5-.5h3.55a1,1,0,0,0,1-1v-1a1,1,0,0,0-1-1h-3.55a.49.49,0,0,1-.5-.49v-1.57a.48.48,0,0,1,.49-.49h4.27a1,1,0,0,0,1-1v-1a1,1,0,0,0-1-1H548a1,1,0,0,0-1,1v1a1,1,0,0,0,1,1h4.18a.5.5,0,0,1,.5.49v1.57a.49.49,0,0,1-.5.49h-3.49a1,1,0,0,0-1,1v1a1,1,0,0,0,1,1h3.49a.5.5,0,0,1,.5.5V230a.51.51,0,0,1-.5.51h-5.3a1,1,0,0,0-1,1v1.1a1,1,0,0,0,1,1h14.59a1,1,0,0,0,1-1v-1.1a1,1,0,0,0-1-1Z"/></clipPath><clipPath id="clip-path-11" transform="translate(-293.47 -167.86)"><path class="cls-1" d="M546.11,224.72a1.52,1.52,0,0,0,0-1.63l-2.77-3.83c-.16-.23-.08-.41.2-.41H545a1,1,0,0,0,1-1v-1.17a1,1,0,0,0-1-1h-1.5a.49.49,0,0,1-.49-.49v-2.66a1,1,0,0,1,1-1h.46a1,1,0,0,0,1-1v-1a1,1,0,0,0-1-1H538a1,1,0,0,0-1,1v1a1,1,0,0,0,1,1h.86a1,1,0,0,1,1,1v2.66a.5.5,0,0,1-.51.49h-2.14a1,1,0,0,0-1,1v1.17a1,1,0,0,0,1,1h1.61c.27,0,.39.19.26.44L535,227.22a.56.56,0,0,0,.55.89h2a.89.89,0,0,0,.72-.45l1.38-2.74c.13-.25.23-.22.23.06v8.42a1,1,0,0,0,1,1H542a1,1,0,0,0,1-1v-9.54c0-.28.1-.3.21-.06l1,2a.54.54,0,0,0,1,.07Z"/></clipPath><clipPath id="clip-path-13" transform="translate(-293.47 -167.86)"><path class="cls-1" d="M551.18,214.18a.51.51,0,0,0,.51.51h5.47a.51.51,0,0,0,.51-.51v-2.43a.5.5,0,0,0-.51-.51h-5.47a.51.51,0,0,0-.51.51ZM548,216.56a1,1,0,0,0,1,1h11a1,1,0,0,0,1-1v-7.19a1,1,0,0,0-1-1H549a1,1,0,0,0-1,1Z"/></clipPath><clipPath id="clip-path-15" transform="translate(-293.47 -167.86)"><path class="cls-1" d="M520.85,229a1,1,0,0,1-1-1V215.11a1,1,0,0,1,1-1h7.65a1,1,0,0,0,1-1v-1.57a1,1,0,0,0-1-1H507.57a1,1,0,0,0-1,1v1.57a1,1,0,0,0,1,1H515a1,1,0,0,1,1,1V228a1,1,0,0,1-1,1H506a1,1,0,0,0-1,1v1.45a1,1,0,0,0,1,1h24.1a1,1,0,0,0,1-1V230a1,1,0,0,0-1-1Z"/></clipPath><clipPath id="clip-path-17" transform="translate(-293.47 -167.86)"><path class="cls-1" d="M496.09,220.74c2.27,0,3.73-.4,3.73-3.38,0-.4,0-1,0-1a1,1,0,0,0-1-1h-.91a1,1,0,0,0-1,.92h0c0,1.47,0,1.47-1.14,1.47h-3.1c-1.09,0-1.26-.12-1.26-1.15v-1.19a.83.83,0,0,1,.46-.7l5-2.16a.93.93,0,0,0,.46-1.3l-.32-.61a1,1,0,0,0-1.36-.48l-3.83,1.78c-.26.12-.46,0-.46-.3V209a1,1,0,0,0-1-1H489a1,1,0,0,0-1,1v7.65c0,3.13.83,4.1,4.16,4.1Z"/></clipPath><clipPath id="clip-path-19" transform="translate(-293.47 -167.86)"><path class="cls-1" d="M496.92,234.74c2.27,0,3.74-.4,3.73-3.38v-1a1,1,0,0,0-1-1h-.91a1,1,0,0,0-1,.92h0c0,1.47,0,1.47-1.15,1.47h-3.93c-1.09,0-1.26-.12-1.26-1.15V229.5a.77.77,0,0,1,.46-.68l5.65-2.21a.88.88,0,0,0,.47-1.26l-.55-1.07a.56.56,0,0,0-.68-.27l-4.9,1.94c-.25.1-.45,0-.45-.33V223a1,1,0,0,0-1-1H489a1,1,0,0,0-1,1v7.65c0,3.13.83,4.1,4.16,4.1Z"/></clipPath><clipPath id="clip-path-21" transform="translate(-293.47 -167.86)"><path class="cls-1" d="M483,210.18a1.07,1.07,0,0,0-.68,1.29l.26.93a.36.36,0,0,1-.36.48H479a.67.67,0,0,1-.67-.95l.84-2.48a.67.67,0,0,0-.66-.95H477a1.4,1.4,0,0,0-1.27,1l-1.44,5a.71.71,0,0,0,.72,1h8.34a.73.73,0,0,1,.65.47v0a.92.92,0,0,0,1.23.58l1.24-.5a1,1,0,0,0,.57-1.3l-1.68-4.27a1.05,1.05,0,0,0-1.31-.61Z"/></clipPath><clipPath id="clip-path-23" transform="translate(-293.47 -167.86)"><path class="cls-1" d="M478.3,225.91a.5.5,0,0,0,.49.49h3.3a.5.5,0,0,0,.49-.49v-.69a.5.5,0,0,0-.49-.49h-3.3a.5.5,0,0,0-.49.49Zm0-4.2a.51.51,0,0,0,.49.5h3.3a.5.5,0,0,0,.49-.5v-.53a.51.51,0,0,0-.49-.5h-3.3a.5.5,0,0,0-.49.5Zm7.17-2.83a1,1,0,0,0-1-1h-8.3a1,1,0,0,0-1,1v15.39a.5.5,0,0,0,.49.51h2.17a.49.49,0,0,0,.49-.5v-4.86a.5.5,0,0,1,.5-.5H482a.5.5,0,0,1,.5.5v2.09a.49.49,0,0,1-.5.49h-1.06a.5.5,0,0,0-.5.51v1.76a.49.49,0,0,0,.49.5s.27,0,.93,0c1.1,0,2.65,0,2.65,0a1,1,0,0,0,1-1V231.5l0-11.84Z"/></clipPath><clipPath id="clip-path-25" transform="translate(-293.47 -167.86)"><path class="cls-1" d="M459.91,217a.51.51,0,0,0,.5.5h3.36a.5.5,0,0,0,.51-.5v-3.85a.5.5,0,0,0-.51-.5h-3.36a.5.5,0,0,0-.5.5Zm-3.15,2.51a1,1,0,0,0,1,1h8.89a1,1,0,0,0,1-1v-8.87a1,1,0,0,0-1-1h-8.89a1,1,0,0,0-1,1Z"/></clipPath><clipPath id="clip-path-27" transform="translate(-293.47 -167.86)"><path class="cls-1" d="M449.84,226.54h11.85v-1.61H449.84Zm0,4.16h11.85V229H449.84Zm-3.36,2.68a1,1,0,0,0,1,1h1.85a.49.49,0,0,0,.5-.49v-.45h11.85v.41a.51.51,0,0,0,.5.51h2a1,1,0,0,0,1-1V223.27a1,1,0,0,0-1-1h-16.7a1,1,0,0,0-1,1Z"/></clipPath><clipPath id="clip-path-29" transform="translate(-293.47 -167.86)"><path class="cls-1" d="M444.71,213.5h-.54a1,1,0,0,1-1-1V209a1,1,0,0,1,1-1H445a1,1,0,0,1,1,1v.23a.5.5,0,0,0,.51.49h7.95a1,1,0,0,1,1,1v.64a1,1,0,0,1-1,1h-2.22a.51.51,0,0,0-.51.51l0,.85a.5.5,0,0,0,.5.51h2.91a1,1,0,0,1,1,1v.68a1,1,0,0,1-1,1h-3.73c.94.49,2.89,1.59,4.05,2.28h0a.69.69,0,0,1,0,1.14l-.58.53-.35.31a1.07,1.07,0,0,1-1.35.16h0c-.87-.7-2.08-1.57-3.09-2.27a12.09,12.09,0,0,1-4.2,3.58c-.34.19-.19.1-.19.1-.49.25-1,.25-1.22,0h0a13.14,13.14,0,0,0-1.08-1.2h0c-.41-.36-.36-.81.11-1h0a8.15,8.15,0,0,0,4.25-3.62H444a1,1,0,0,1-1-1v-.67a1,1,0,0,1,1-1H448a.51.51,0,0,0,.51-.51v-.85a.49.49,0,0,0-.49-.51l-1.48,0a.5.5,0,0,0-.5.49V213a.5.5,0,0,1-.51.5Z"/></clipPath><clipPath id="clip-path-31" transform="translate(-293.47 -167.86)"><path class="cls-1" d="M427.83,229.4a1,1,0,0,1-1-1V215.56a1,1,0,0,1,1-1h7.65a1,1,0,0,0,1-1V212a1,1,0,0,0-1-1H414.55a1,1,0,0,0-1,1v1.58a1,1,0,0,0,1,1h7.38a1,1,0,0,1,1,1V228.4a1,1,0,0,1-1,1H413a1,1,0,0,0-1,1v1.45a1,1,0,0,0,1,1h24.1a1,1,0,0,0,1-1v-1.45a1,1,0,0,0-1-1Z"/></clipPath><clipPath id="clip-path-33" transform="translate(-293.47 -167.86)"><path class="cls-1" d="M392.21,207.6a1,1,0,0,0-1,1s0-.35,0,0c0,3.38-.14,9.15-2.82,14.43a19.27,19.27,0,0,1-7.68,8.1h0a.82.82,0,0,0-.14,1.21l.44.65,1,.74a1.62,1.62,0,0,0,1.66.06s-.21.13.09-.06a22.26,22.26,0,0,0,5.06-4.51,24.4,24.4,0,0,0,3.94-6.86c.23-.6.3-.85.3-.85.18-.52.47-.53.67,0,0,0,.14.44.44,1.14a21.51,21.51,0,0,0,9.54,11h0a1.65,1.65,0,0,0,1.66-.18L406,233l.59-1a.87.87,0,0,0-.38-1.28l-.1,0C397,226,395.34,215.82,395,212.08c.07-1.1.12-2.12.16-3,0-.52,0-.45,0-.45a1,1,0,0,0-1-1Z"/></clipPath><clipPath id="clip-path-35" transform="translate(-293.47 -167.86)"><path class="cls-1" d="M583.12,186.45a.33.33,0,0,1,.33.47,36.69,36.69,0,0,1-3,6.45,31,31,0,0,1-2.44,3.19c-.29.33-.56.62-.8.87l-.3.3a1,1,0,0,0,.14,1.5l1.06.78a1.08,1.08,0,0,0,1.47-.2l.29-.32c.26-.29.54-.62.85-1a36.19,36.19,0,0,0,2.56-3.56,42.56,42.56,0,0,0,3.37-8,.72.72,0,0,1,.66-.46h1.38a.47.47,0,0,1,.48.5s-.53,8.12-.63,9.21c-.17,1.67-.54,2-2.52,2h-2.78a.93.93,0,0,0-.93,1.12l.24,1.22a1.17,1.17,0,0,0,1.13.93h2.85c3.74,0,5.05-1,5.29-4.34.06-.72.18-2.71.34-5.62,0-.29,0-.29,0-.58.08-1.42.16-2.93.24-4.45,0-.54.06-1,.08-1.47s0-.46,0-.56a1,1,0,0,0-1-1.07h-9.36c-.55,0-.6-.22-.13-.49l6.58-3.82a1.91,1.91,0,0,0,.86-1.49v-1.45a1,1,0,0,0-1-1H576.44a1,1,0,0,0-1,1v1.16a1,1,0,0,0,1,1h6.9l-7.6,4.91a2,2,0,0,0-.83,1.54v.65a1,1,0,0,0,1,1h2.71a.3.3,0,0,1,.3.45,25.7,25.7,0,0,1-1.7,3.23c-.78,1.16-3.2,4.25-3.74,4.79a.75.75,0,0,0,.09,1.13,2.65,2.65,0,0,0,.5.4,5.83,5.83,0,0,0,.63.36l.15.05a1.09,1.09,0,0,0,.93-.27,24.65,24.65,0,0,0,1.84-2.28l.06-.08,1.44-1.9A29.26,29.26,0,0,0,582,186.9a.8.8,0,0,1,.69-.45Z"/></clipPath><clipPath id="clip-path-37" transform="translate(-293.47 -167.86)"><path class="cls-1" d="M571.74,184.44a.5.5,0,0,1,.51-.49h1.25a1,1,0,0,0,1-1v-1.22a1,1,0,0,0-1-1h-1.25a.51.51,0,0,1-.51-.5v-5.6a1,1,0,0,0-1-1h-1.25a1,1,0,0,0-1.05,1v5.6a.49.49,0,0,1-.5.5h-2.13a1,1,0,0,0-1,1v1.22a1,1,0,0,0,1,1h2.13a.5.5,0,0,1,.5.5v8.85a.72.72,0,0,1-.48.66l-1.55.51-.9.34a1.13,1.13,0,0,0-.7,1.29l.28,1.21a.94.94,0,0,0,1.28.69l6.25-2.43a2.08,2.08,0,0,0,1.26-1.84v-.15a1.13,1.13,0,0,0-1.61-1.1h0a.31.31,0,0,1-.46-.31Z"/></clipPath><clipPath id="clip-path-39" transform="translate(-293.47 -167.86)"><path class="cls-1" d="M520.83,195.4a1,1,0,0,1-1-1V181.56a1,1,0,0,1,1-1h7.65a1,1,0,0,0,1-1V178a1,1,0,0,0-1-1H507.55a1,1,0,0,0-1,1v1.58a1,1,0,0,0,1,1h7.38a1,1,0,0,1,1,1V194.4a1,1,0,0,1-1,1H506a1,1,0,0,0-1,1v1.45a1,1,0,0,0,1,1h24.1a1,1,0,0,0,1-1v-1.45a1,1,0,0,0-1-1Z"/></clipPath><clipPath id="clip-path-41" transform="translate(-293.47 -167.86)"><path class="cls-1" d="M471.08,184a1,1,0,0,0-1-1h-7.71a.5.5,0,0,1-.5-.5v-3.71a.69.69,0,0,1,.48-.63l6.59-1.74c.8-.21,1-.83.36-1.41L468,173.79a1,1,0,0,0-.85-.2l-7.64,2.14a1.4,1.4,0,0,0-1,1.28v9.52A65.76,65.76,0,0,1,458,194c-.25,1.66-.14.82-.14.82-.19.51-.56.53-.84,0l-1.4-2.47a1,1,0,0,0-1.37-.4l-.6.33a1,1,0,0,0-.41,1.37l1.42,2.72a.89.89,0,0,0,1.3.36l.69-.44c.46-.29.66-.13.42.38l-.48,1.06a1.34,1.34,0,0,0,.37,1.53l1.15.89a.79.79,0,0,0,1.24-.27,20.22,20.22,0,0,0,1.53-3.75,30.52,30.52,0,0,0,.83-5.22c.12-1.55.15-4.13.15-4.13a.52.52,0,0,1,.51-.5h1.94a.5.5,0,0,1,.5.49v13.24a1,1,0,0,0,1,1h1.46a1,1,0,0,0,1-1V186.81a.49.49,0,0,1,.5-.49h1.28a1,1,0,0,0,1-1Zm-14.86,7a1,1,0,0,0,1-1v-1a1,1,0,0,0-1-1h-3.46a.5.5,0,0,1-.49-.5v-1.31a.5.5,0,0,1,.5-.5h3.93a1,1,0,0,0,1-1v-.94a1,1,0,0,0-1-1h-1.62a.31.31,0,0,1-.31-.46l.78-1.86a.78.78,0,0,0-.59-1.11l-1-.19c-.28-.06-.27-.1,0-.1h2.3a1,1,0,0,0,1-1v-.91a1,1,0,0,0-1-1h-3.73c-.33-1-.88-2.2-.88-2.2a1.26,1.26,0,0,0-1.38-.69l-1.24.29a.85.85,0,0,0-.6,1.16s.26.63.53,1.44h-4.13a1,1,0,0,0-1,1V178a1,1,0,0,0,1,1h2.55c.28,0,.27.06,0,.12l-1,.24a1,1,0,0,0-.7,1.19l.49,1.68a.36.36,0,0,1-.36.49h-1.44a1,1,0,0,0-1,1v.94a1,1,0,0,0,1,1h4.2a.51.51,0,0,1,.51.5v1.31a.5.5,0,0,1-.51.5h-4a1,1,0,0,0-1,1v1a1,1,0,0,0,1,1h4a.51.51,0,0,1,.51.5v5.83c0,.33-.09.42-.42.42h-1.16a.67.67,0,0,0-.69.93l.34,1a1.39,1.39,0,0,0,1.31.91,7.33,7.33,0,0,0,2.69-.47c.9-.51,1.14-1.26,1.14-2.7V191.5a.51.51,0,0,1,.49-.5Zm-4-12a.34.34,0,0,1,.35.47l-1,2.78a.75.75,0,0,1-.65.47h-3.05l.47-.13a1,1,0,0,0,.68-1.22l-.58-1.89a.35.35,0,0,1,.36-.48Zm-5.63,13a1.4,1.4,0,0,0-1.47.62l-1.58,2.72a1.12,1.12,0,0,0,.31,1.45l.69.5a.87.87,0,0,0,1.3-.28l2.05-3.69a.72.72,0,0,0-.48-1.11Z"/></clipPath><clipPath id="clip-path-43" transform="translate(-293.47 -167.86)"><path class="cls-1" d="M402.61,175.92a1,1,0,0,0-1,1v15.61a1,1,0,0,0,1,1h1.28a1,1,0,0,0,1-1V176.91a1,1,0,0,0-1-1Z"/></clipPath><clipPath id="clip-path-45" transform="translate(-293.47 -167.86)"><path class="cls-1" d="M404,198.23a.84.84,0,0,0-.85,1l.22,1.44a1.19,1.19,0,0,0,1.14,1h1.68c3.41,0,4.56-1,4.56-4.09V174.5a1,1,0,0,0-1-1H408.5a1,1,0,0,0-1,1v22.1c0,1.41-.25,1.64-1.94,1.64Z"/></clipPath><clipPath id="clip-path-47" transform="translate(-293.47 -167.86)"><path class="cls-1" d="M386,196.93c0,3.38,1.23,4.56,4.59,4.56h4.94c3.6,0,4.75-.83,5-3.73,0-.32.06-.66.08-1s0-.76,0-.76a1.43,1.43,0,0,0-1-1.3l-1.32-.42a.67.67,0,0,0-.92.7s0-.06,0,.79c0,.16,0,.44-.05.8-.11,1.58-.29,1.74-2.17,1.74h-3.93c-1.85,0-2-.16-2-2V187a.51.51,0,0,1,.51-.5h4.94a.48.48,0,0,1,.49.5s-.06,1.39-.09,1.87c-.11,1.49-.22,1.59-1.82,1.59h-1.67a1.28,1.28,0,0,0-1.28,1.58,1.81,1.81,0,0,0,1.71,1.43h1.88c3.1,0,4.15-1,4.33-4,0-.16,0-.73,0-1.64,0-.21,0-.33,0-.66,0-.51,0-1.06,0-1.6,0-.33,0-.58,0-.73a1.48,1.48,0,0,0-1.48-1.51h-8.48c-.29,0-.35-.16-.15-.35,0,0,.15-.14.39-.4a36.83,36.83,0,0,0,3.36-4.16l.11-.15,2,1.82,2.42,2.16.8.72.3.27a1.51,1.51,0,0,0,2.12-.1l.31-.33a1.45,1.45,0,0,0-.14-2.1l-.31-.27-.83-.71-2.51-2.16-2.4-2.05a1.46,1.46,0,0,0-.62-2.06l-.79-.44a1,1,0,0,0-1.37.39l-.41.72-.4.65c-.43.66-.86,1.33-1.28,1.95-.14.19-.27.38-.39.56-.43.6-.8,1.09-1.11,1.46s-.71.79-1.2,1.27l-.48.47c-.52.5-1.08,1-1.64,1.5-.33.3-.74.65-.74.65l-.22.21a1.24,1.24,0,0,0-.19,1.52l.39.6a1.56,1.56,0,0,0,2.13.27h0c.19-.14.34,0,.35.24Z"/></clipPath></defs><title>Asset 1</title><g id="Layer_2" data-name="Layer 2"><g id="白色背景"><g id="中英横版"><path class="cls-3" d="M322.6,252.59l18.15-13.05A3.22,3.22,0,0,0,337,234.3l-18.16,13a3.22,3.22,0,0,0,3.76,5.24Z" transform="translate(-293.47 -167.86)"/><path class="cls-3" d="M316.49,242.93l.35-.25,1-.71,3.51-2.53c3.64-2.64,7.27-5.33,10.67-7.92l2.06-1.59c6.61-5.13,11.12-9,13.07-11.4a29.21,29.21,0,0,0,2.5-3.63,30.12,30.12,0,1,0-34.95,13.54,3.22,3.22,0,0,0,1.91-6.16,24.48,24.48,0,0,1-3.86-1.59,23.75,23.75,0,1,1,31.35-9.07,23.4,23.4,0,0,1-2,2.86c-1.5,1.86-5.82,5.56-12,10.34l-2,1.56c-3.35,2.56-6.94,5.22-10.54,7.83l-3.47,2.51-1,.69-.34.24a3.23,3.23,0,0,0,3.72,5.28Z" transform="translate(-293.47 -167.86)"/><path class="cls-4" d="M589.58,257.45h4.75v-.87h-3.74v-2.93h3v-.86h-3v-2.53h3.62v-.85h-4.63Zm-5.66,0h1v-7.19h2.43v-.85h-5.88v.85h2.43Zm-7.49.14c1.64,0,2.89-.88,2.89-3.47v-4.71h-1v4.75c0,1.94-.85,2.54-1.92,2.54s-1.86-.6-1.86-2.54v-4.75h-1v4.71C573.55,256.71,574.8,257.59,576.43,257.59Zm-8.5-.14h1v-7.19h2.43v-.85H565.5v.85h2.43Zm-5.65,0h1v-8h-1Zm-5.65,0h1v-7.19h2.43v-.85h-5.89v.85h2.44Zm-6.51.14c1.68,0,2.73-1,2.73-2.28a2.25,2.25,0,0,0-1.66-2.15l-1.15-.49c-.62-.27-1.32-.56-1.32-1.34s.59-1.19,1.5-1.19a2.61,2.61,0,0,1,1.83.76l.53-.65a3.29,3.29,0,0,0-2.36-1,2.15,2.15,0,0,0-.9,4.2l1.16.5c.76.34,1.34.6,1.34,1.43s-.64,1.31-1.69,1.31a3.12,3.12,0,0,1-2.22-1l-.6.7A3.83,3.83,0,0,0,550.12,257.59Zm-10.91-.14h1v-4.22c0-.85-.07-1.7-.12-2.52h.05l.86,1.66,2.93,5.08h1v-8h-1v4.18c0,.83.08,1.73.14,2.54H544l-.85-1.65-2.93-5.07h-1Zm-4,0h1v-8h-1Zm-7.19,0h1v-8h-1Zm-3,0h1.07l-2.73-8h-1.12l-2.73,8h1l.78-2.46h2.93Zm-3.45-3.27L522,253c.29-.91.55-1.78.8-2.72h.05c.26.93.51,1.81.81,2.72l.38,1.23Zm-9.29,3.41c1.68,0,2.73-1,2.73-2.28a2.25,2.25,0,0,0-1.66-2.15l-1.15-.49c-.62-.27-1.32-.56-1.32-1.34s.59-1.19,1.5-1.19a2.63,2.63,0,0,1,1.83.76l.53-.65a3.29,3.29,0,0,0-2.36-1,2.15,2.15,0,0,0-.9,4.2l1.16.5c.76.34,1.34.6,1.34,1.43s-.64,1.31-1.69,1.31a3.12,3.12,0,0,1-2.22-1l-.61.7A3.87,3.87,0,0,0,512.33,257.59Zm-9.44-.14h4.75v-.87h-3.73v-2.93h3v-.86h-3v-2.53h3.61v-.85h-4.63Zm-2.16,0-2.06-3.52a2.18,2.18,0,0,0,1.82-2.26c0-1.68-1.17-2.26-2.81-2.26h-2.51v8h1V254h1.45l1.95,3.41Zm-4.55-7.22h1.35c1.26,0,2,.37,2,1.44s-.69,1.54-2,1.54h-1.35Zm-6.83,7.36c1.64,0,2.89-.88,2.89-3.47v-4.71h-1v4.75c0,1.94-.85,2.54-1.92,2.54s-1.86-.6-1.86-2.54v-4.75h-1v4.71C486.47,256.71,487.72,257.59,489.35,257.59Zm-8.5-.14h1v-7.19h2.43v-.85h-5.88v.85h2.43Zm-10.35,0h1v-4.22c0-.85-.08-1.7-.12-2.52h0l.87,1.66,2.92,5.08h1.05v-8h-1v4.18c0,.83.08,1.73.13,2.54h-.05l-.86-1.65-2.92-5.07H470.5Zm-7.21,0H468v-.87h-3.73v-2.93h3v-.86h-3v-2.53h3.61v-.85h-4.63Zm-5.59,0h1.18l2.55-8h-1l-1.29,4.35c-.29,1-.49,1.71-.78,2.66h-.05c-.3-1-.49-1.71-.77-2.66l-1.31-4.35h-1.06Zm-13.37,0h1v-4.22c0-.85-.07-1.7-.12-2.52h.05l.86,1.66,2.93,5.08h1v-8h-1v4.18c0,.83.08,1.73.13,2.54h0l-.85-1.65-2.93-5.07h-1.05Zm-5.93-.75c-1.44,0-2.38-1.29-2.38-3.3s.94-3.26,2.38-3.26,2.39,1.24,2.39,3.26S439.84,256.7,438.4,256.7Zm0,.89c2,0,3.43-1.61,3.43-4.19s-1.41-4.14-3.43-4.14S435,250.82,435,253.4,436.39,257.59,438.4,257.59Zm-6.94-.14h1v-8h-1Zm-5.65,0h1v-7.19h2.43v-.85h-5.89v.85h2.44Zm-4,0h1.07l-2.72-8h-1.13l-2.73,8h1l.78-2.46h2.93Zm-3.45-3.27.39-1.23c.29-.91.55-1.78.8-2.72h.05c.26.93.51,1.81.81,2.72l.38,1.23ZM412,257.45h1.17l2.56-8h-1l-1.3,4.35c-.28,1-.48,1.71-.77,2.66h0c-.31-1-.49-1.71-.78-2.66l-1.3-4.35H409.4Zm-7.28-.75c-1.45,0-2.39-1.29-2.39-3.3s.94-3.26,2.39-3.26,2.38,1.24,2.38,3.26S406.11,256.7,404.68,256.7Zm0,.89c2,0,3.43-1.61,3.43-4.19s-1.42-4.14-3.43-4.14-3.43,1.56-3.43,4.14S402.66,257.59,404.68,257.59ZM393,257.45h1v-4.22c0-.85-.08-1.7-.12-2.52h0l.87,1.66,2.92,5.08h1v-8h-1v4.18c0,.83.07,1.73.13,2.54h-.06l-.85-1.65-2.93-5.07H393Zm-4,0h1v-8h-1Zm-5.07.14c1.67,0,2.72-1,2.72-2.28a2.24,2.24,0,0,0-1.65-2.15l-1.15-.49c-.63-.27-1.33-.56-1.33-1.34s.59-1.19,1.5-1.19a2.59,2.59,0,0,1,1.83.76l.54-.65a3.29,3.29,0,0,0-2.37-1,2.15,2.15,0,0,0-.89,4.2l1.16.5c.75.34,1.33.6,1.33,1.43s-.63,1.31-1.68,1.31a3.13,3.13,0,0,1-2.23-1l-.6.7A3.86,3.86,0,0,0,384,257.59Z" transform="translate(-293.47 -167.86)"/><g class="cls-5"><g class="cls-6"><rect class="cls-7" x="276.54" y="48.4" width="28.44" height="22.84"/></g></g><g class="cls-8"><g class="cls-6"><rect class="cls-7" x="269.44" y="35.83" width="18.09" height="35.6"/></g></g><g class="cls-9"><g class="cls-6"><rect class="cls-7" x="282.53" y="43.14" width="18" height="13"/></g></g><g class="cls-10"><g class="cls-6"><rect class="cls-7" x="278.53" y="35.14" width="26" height="18"/></g></g><g class="cls-11"><g class="cls-6"><rect class="cls-7" x="247.38" y="46.45" width="26.59" height="24.32"/></g></g><g class="cls-12"><g class="cls-6"><rect class="cls-7" x="236.39" y="35.64" width="21.48" height="35.9"/></g></g><g class="cls-13"><g class="cls-6"><rect class="cls-7" x="249.53" y="35.52" width="23" height="19.18"/></g></g><g class="cls-14"><g class="cls-6"><rect class="cls-7" x="206.55" y="37.7" width="36.09" height="31.84"/></g></g><g class="cls-15"><g class="cls-6"><rect class="cls-7" x="189.53" y="35.14" width="21.82" height="22.74"/></g></g><g class="cls-16"><g class="cls-6"><rect class="cls-7" x="189.53" y="49.14" width="22.65" height="22.74"/></g></g><g class="cls-17"><g class="cls-6"><rect class="cls-7" x="175.77" y="35.64" width="22.86" height="18.07"/></g></g><g class="cls-18"><g class="cls-6"><rect class="cls-7" x="176.68" y="45.01" width="20.35" height="26.92"/></g></g><g class="cls-19"><g class="cls-6"><rect class="cls-7" x="158.29" y="36.81" width="20.91" height="20.88"/></g></g><g class="cls-20"><g class="cls-6"><rect class="cls-7" x="148.02" y="49.41" width="28.71" height="22.11"/></g></g><g class="cls-21"><g class="cls-6"><rect class="cls-7" x="144.53" y="35.14" width="23.12" height="24.93"/></g></g><g class="cls-22"><g class="cls-6"><rect class="cls-7" x="113.53" y="38.14" width="36.09" height="31.84"/></g></g><g class="cls-23"><g class="cls-6"><rect class="cls-7" x="81.9" y="34.74" width="36.37" height="36.4"/></g></g><g class="cls-24"><g class="cls-6"><rect class="cls-7" x="274.83" y="2.21" width="29.26" height="36.33"/></g></g><g class="cls-25"><g class="cls-6"><rect class="cls-7" x="266.27" y="0.72" width="19.76" height="34.5"/></g></g><g class="cls-26"><g class="cls-6"><rect class="cls-7" x="206.53" y="4.14" width="36.09" height="31.84"/></g></g><g class="cls-27"><g class="cls-6"><rect class="cls-7" x="144.89" y="0.34" width="37.72" height="37.85"/></g></g><g class="cls-28"><g class="cls-6"><rect class="cls-7" x="103.14" y="3.06" width="13.28" height="27.59"/></g></g><g class="cls-29"><g class="cls-6"><rect class="cls-7" x="104.71" y="0.64" width="17.61" height="38.16"/></g></g><g class="cls-30"><g class="cls-6"><rect class="cls-7" x="84.4" width="27.74" height="38.63"/></g></g></g></g></g></svg>