<?xml version="1.0" standalone="no"?><!DOCTYPE svg PUBLIC "-//W3C//DTD SVG 1.1//EN" "http://www.w3.org/Graphics/SVG/1.1/DTD/svg11.dtd"><svg class="icon" width="200px" height="200.00px" viewBox="0 0 1024 1024" version="1.1" xmlns="http://www.w3.org/2000/svg"><path d="M780.8 774.4c-21.2 0-38.4-17.2-38.4-38.4s17.2-38.4 38.4-38.4c91.8 0 166.4-74.7 166.4-166.4 0-90.4-70.9-163.4-161.3-166.1l-25.4-0.8-9.2-23.7c-36.7-94.2-125.6-155.1-226.5-155.1-101.1 0-190.1 61.1-226.6 155.6l-10.4 27-28.9-2.6c-5.2-0.5-10.4-0.8-15.7-0.8-91.8 0-166.4 74.6-166.4 166.4s74.6 166.4 166.4 166.4c21.2 0 38.4 17.2 38.4 38.4s-17.2 38.4-38.4 38.4C109.1 774.4 0 665.3 0 531.2 0 399 106.1 291.1 237.6 288.1 291.1 178.3 401 108.8 524.8 108.8c124.5 0 235.2 70.5 288.3 181.5C933.2 306 1024 407.4 1024 531.2c0 134.1-109.1 243.2-243.2 243.2z" fill="#6e81f7" /><path d="M667.2 694.8L540.5 568.1c-3.6-3.6-7.8-6.4-12.6-8.4-0.2-0.1-0.4-0.1-0.6-0.2-4.3-1.7-9-2.7-14-2.7s-9.7 1-14 2.7c-0.2 0.1-0.4 0.1-0.6 0.2-4.7 1.9-9 4.8-12.5 8.3L359.4 694.8c-15 15-15 39.3 0 54.3 7.5 7.5 17.3 11.2 27.2 11.2 9.8 0 19.6-3.8 27.1-11.2l61.2-61.2v188.9c0 21.2 17.2 38.4 38.4 38.4s38.4-17.2 38.4-38.4V687.9l61.2 61.2c7.5 7.5 17.3 11.2 27.2 11.2s19.7-3.8 27.2-11.2c14.9-15 14.9-39.3-0.1-54.3z" fill="#94a4f8" /></svg>